  0
SECTION
  2
HEADER
  9
$ACADVER
  1
AC1015
  9
$ACADMAINTVER
 70
     6
  9
$DWGCODEPAGE
  3
ANSI_1252
  9
$INSBASE
 10
0.0
 20
0.0
 30
0.0
  9
$EXTMIN
 10
-68.0
 20
-15.0
 30
0.0
  9
$EXTMAX
 10
68.0
 20
40.0
 30
0.0
  9
$LIMMIN
 10
0.0
 20
0.0
  9
$LIMMAX
 10
420.0
 20
297.0
  9
$ORTHOMODE
 70
     0
  9
$REGENMODE
 70
     1
  9
$FILLMODE
 70
     1
  9
$QTEXTMODE
 70
     0
  9
$MIRRTEXT
 70
     1
  9
$LTSCALE
 40
1.0
  9
$ATTMODE
 70
     1
  9
$TEXTSIZE
 40
3.175
  9
$TRACEWID
 40
1.0
  9
$TEXTSTYLE
  7
Standard
  9
$CLAYER
  8
0
  9
$CELTYPE
  6
ByLayer
  9
$CECOLOR
 62
   256
  9
$CELTSCALE
 40
1.0
  9
$DISPSILH
 70
     0
  9
$DIMSCALE
 40
1.0
  9
$DIMASZ
 40
3.302
  9
$DIMEXO
 40
1.27
  9
$DIMDLI
 40
3.75
  9
$DIMRND
 40
0.0
  9
$DIMDLE
 40
0.0
  9
$DIMEXE
 40
3.175
  9
$DIMTP
 40
0.0
  9
$DIMTM
 40
0.0
  9
$DIMTXT
 40
3.175
  9
$DIMCEN
 40
2.5
  9
$DIMTSZ
 40
0.0
  9
$DIMTOL
 70
     0
  9
$DIMLIM
 70
     0
  9
$DIMTIH
 70
     1
  9
$DIMTOH
 70
     1
  9
$DIMSE1
 70
     0
  9
$DIMSE2
 70
     0
  9
$DIMTAD
 70
     0
  9
$DIMZIN
 70
     0
  9
$DIMBLK
  1

  9
$DIMASO
 70
     1
  9
$DIMSHO
 70
     1
  9
$DIMPOST
  1

  9
$DIMAPOST
  1

  9
$DIMALT
 70
     0
  9
$DIMALTD
 70
     3
  9
$DIMALTF
 40
0.0393700787
  9
$DIMLFAC
 40
1.0
  9
$DIMTOFL
 70
     1
  9
$DIMTVP
 40
0.0
  9
$DIMTIX
 70
     0
  9
$DIMSOXD
 70
     0
  9
$DIMSAH
 70
     0
  9
$DIMBLK1
  1

  9
$DIMBLK2
  1

  9
$DIMSTYLE
  2
ISO-25
  9
$DIMCLRD
 70
     0
  9
$DIMCLRE
 70
     0
  9
$DIMCLRT
 70
     0
  9
$DIMTFAC
 40
1.0
  9
$DIMGAP
 40
1.524
  9
$DIMJUST
 70
     0
  9
$DIMSD1
 70
     0
  9
$DIMSD2
 70
     0
  9
$DIMTOLJ
 70
     0
  9
$DIMTZIN
 70
     0
  9
$DIMALTZ
 70
     0
  9
$DIMALTTZ
 70
     0
  9
$DIMUPT
 70
     0
  9
$DIMDEC
 70
     2
  9
$DIMTDEC
 70
     2
  9
$DIMALTU
 70
     2
  9
$DIMALTTD
 70
     3
  9
$DIMTXSTY
  7
Standard
  9
$DIMAUNIT
 70
     0
  9
$DIMADEC
 70
     2
  9
$DIMALTRND
 40
0.0
  9
$DIMAZIN
 70
     0
  9
$DIMDSEP
 70
    44
  9
$DIMATFIT
 70
     3
  9
$DIMFRAC
 70
     0
  9
$DIMLDRBLK
  1

  9
$DIMLUNIT
 70
     2
  9
$DIMLWD
 70
    -2
  9
$DIMLWE
 70
    -2
  9
$DIMTMOVE
 70
     0
  9
$LUNITS
 70
     2
  9
$LUPREC
 70
     2
  9
$SKETCHINC
 40
1.0
  9
$FILLETRAD
 40
10.0
  9
$AUNITS
 70
     0
  9
$AUPREC
 70
     2
  9
$MENU
  1
.
  9
$ELEVATION
 40
0.0
  9
$PELEVATION
 40
0.0
  9
$THICKNESS
 40
0.0
  9
$LIMCHECK
 70
     0
  9
$CHAMFERA
 40
0.0
  9
$CHAMFERB
 40
0.0
  9
$CHAMFERC
 40
0.0
  9
$CHAMFERD
 40
0.0
  9
$SKPOLY
 70
     0
  9
$TDCREATE
 40
2457410.694023854
  9
$TDUCREATE
 40
2457411.027357188
  9
$TDUPDATE
 40
2457410.69407309
  9
$TDUUPDATE
 40
2457411.027406424
  9
$TDINDWG
 40
0.0000000116
  9
$TDUSRTIMER
 40
0.0000000116
  9
$USRTIMER
 70
     1
  9
$ANGBASE
 50
0.0
  9
$ANGDIR
 70
     0
  9
$PDMODE
 70
     0
  9
$PDSIZE
 40
-1.0
  9
$PLINEWID
 40
0.0
  9
$SPLFRAME
 70
     0
  9
$SPLINETYPE
 70
     6
  9
$SPLINESEGS
 70
     8
  9
$HANDSEED
  5
159
  9
$SURFTAB1
 70
     6
  9
$SURFTAB2
 70
     6
  9
$SURFTYPE
 70
     6
  9
$SURFU
 70
     6
  9
$SURFV
 70
     6
  9
$UCSBASE
  2

  9
$UCSNAME
  2

  9
$UCSORG
 10
0.0
 20
0.0
 30
0.0
  9
$UCSXDIR
 10
1.0
 20
0.0
 30
0.0
  9
$UCSYDIR
 10
0.0
 20
1.0
 30
0.0
  9
$UCSORTHOREF
  2

  9
$UCSORTHOVIEW
 70
     0
  9
$UCSORGTOP
 10
0.0
 20
0.0
 30
0.0
  9
$UCSORGBOTTOM
 10
0.0
 20
0.0
 30
0.0
  9
$UCSORGLEFT
 10
0.0
 20
0.0
 30
0.0
  9
$UCSORGRIGHT
 10
0.0
 20
0.0
 30
0.0
  9
$UCSORGFRONT
 10
0.0
 20
0.0
 30
0.0
  9
$UCSORGBACK
 10
0.0
 20
0.0
 30
0.0
  9
$PUCSBASE
  2

  9
$PUCSNAME
  2

  9
$PUCSORG
 10
0.0
 20
0.0
 30
0.0
  9
$PUCSXDIR
 10
1.0
 20
0.0
 30
0.0
  9
$PUCSYDIR
 10
0.0
 20
1.0
 30
0.0
  9
$PUCSORTHOREF
  2

  9
$PUCSORTHOVIEW
 70
     0
  9
$PUCSORGTOP
 10
0.0
 20
0.0
 30
0.0
  9
$PUCSORGBOTTOM
 10
0.0
 20
0.0
 30
0.0
  9
$PUCSORGLEFT
 10
0.0
 20
0.0
 30
0.0
  9
$PUCSORGRIGHT
 10
0.0
 20
0.0
 30
0.0
  9
$PUCSORGFRONT
 10
0.0
 20
0.0
 30
0.0
  9
$PUCSORGBACK
 10
0.0
 20
0.0
 30
0.0
  9
$USERI1
 70
     0
  9
$USERI2
 70
     0
  9
$USERI3
 70
     0
  9
$USERI4
 70
     0
  9
$USERI5
 70
     0
  9
$USERR1
 40
0.0
  9
$USERR2
 40
0.0
  9
$USERR3
 40
0.0
  9
$USERR4
 40
0.0
  9
$USERR5
 40
0.0
  9
$WORLDVIEW
 70
     1
  9
$SHADEDGE
 70
     3
  9
$SHADEDIF
 70
    70
  9
$TILEMODE
 70
     1
  9
$MAXACTVP
 70
    64
  9
$PINSBASE
 10
0.0
 20
0.0
 30
0.0
  9
$PLIMCHECK
 70
     0
  9
$PEXTMIN
 10
1.0000000000E+20
 20
1.0000000000E+20
 30
1.0000000000E+20
  9
$PEXTMAX
 10
-1.0000000000E+20
 20
-1.0000000000E+20
 30
-1.0000000000E+20
  9
$PLIMMIN
 10
0.0
 20
0.0
  9
$PLIMMAX
 10
420.0
 20
297.0
  9
$UNITMODE
 70
     0
  9
$VISRETAIN
 70
     1
  9
$PLINEGEN
 70
     0
  9
$PSLTSCALE
 70
     1
  9
$TREEDEPTH
 70
  3020
  9
$CMLSTYLE
  2
Standard
  9
$CMLJUST
 70
     0
  9
$CMLSCALE
 40
20.0
  9
$PROXYGRAPHICS
 70
     1
  9
$MEASUREMENT
 70
     1
  9
$CELWEIGHT
370
    -1
  9
$ENDCAPS
280
     0
  9
$JOINSTYLE
280
     0
  9
$LWDISPLAY
290
     1
  9
$INSUNITS
 70
     4
  9
$HYPERLINKBASE
  1

  9
$STYLESHEET
  1

  9
$XEDIT
290
     1
  9
$CEPSNTYPE
380
     0
  9
$PSTYLEMODE
290
     1
  9
$FINGERPRINTGUID
  2
{DF791D64-9270-4ADF-B295-28F900657C68}
  9
$VERSIONGUID
  2
{FAEB1C32-E019-11D5-929B-00C0DF256EC4}
  9
$EXTNAMES
290
     1
  9
$PSVPSCALE
 40
0.0
  9
$OLESTARTUP
290
     0
  0
ENDSEC
  0
SECTION
  2
CLASSES
  0
CLASS
  1
ACDBDICTIONARYWDFLT
  2
AcDbDictionaryWithDefault
  3
ObjectDBX Classes
 90
        0
280
     0
281
     0
  0
CLASS
  1
VISUALSTYLE
  2
AcDbVisualStyle
  3
ObjectDBX Classes
 90
     4095
280
     0
281
     0
  0
CLASS
  1
MATERIAL
  2
AcDbMaterial
  3
ObjectDBX Classes
 90
     1153
280
     0
281
     0
  0
CLASS
  1
SCALE
  2
AcDbScale
  3
ObjectDBX Classes
 90
     1153
280
     0
281
     0
  0
CLASS
  1
TABLESTYLE
  2
AcDbTableStyle
  3
ObjectDBX Classes
 90
     4095
280
     0
281
     0
  0
CLASS
  1
MLEADERSTYLE
  2
AcDbMLeaderStyle
  3
ACDB_MLEADERSTYLE_CLASS
 90
     4095
280
     0
281
     0
  0
CLASS
  1
SUN
  2
AcDbSun
  3
SCENEOE
 90
     1153
280
     0
281
     0
  0
CLASS
  1
ACDBPLACEHOLDER
  2
AcDbPlaceHolder
  3
ObjectDBX Classes
 90
        0
280
     0
281
     0
  0
CLASS
  1
LAYOUT
  2
AcDbLayout
  3
ObjectDBX Classes
 90
        0
280
     0
281
     0
  0
ENDSEC
  0
SECTION
  2
TABLES
  0
TABLE
  2
VPORT
  5
8
330
0
100
AcDbSymbolTable
 70
     1
  0
VPORT
  5
29
330
8
100
AcDbSymbolTableRecord
100
AcDbViewportTableRecord
  2
*Active
 70
     0
 10
0.0
 20
0.0
 11
1.0
 21
1.0
 12
0.0
 22
12.5
 13
0.0
 23
0.0
 14
10.0
 24
10.0
 15
10.0
 25
10.0
 16
0.0
 26
0.0
 36
1.0
 17
0.0
 27
0.0
 37
0.0
 40
56.1
 41
2.4727272727
 42
50.0
 43
0.0
 44
0.0
 50
0.0
 51
0.0
 71
     0
 72
   100
 73
     1
 74
     3
 75
     0
 76
     0
 77
     0
 78
     0
281
     0
 65
     1
110
0.0
120
0.0
130
0.0
111
1.0
121
0.0
131
0.0
112
0.0
122
1.0
132
0.0
 79
     0
146
0.0
  0
ENDTAB
  0
TABLE
  2
LTYPE
  5
5
330
0
100
AcDbSymbolTable
 70
     6
  0
LTYPE
  5
14
330
5
100
AcDbSymbolTableRecord
100
AcDbLinetypeTableRecord
  2
ByBlock
 70
     0
  3

 72
    65
 73
     0
 40
0.0
  0
LTYPE
  5
15
330
5
100
AcDbSymbolTableRecord
100
AcDbLinetypeTableRecord
  2
ByLayer
 70
     0
  3

 72
    65
 73
     0
 40
0.0
  0
LTYPE
  5
16
330
5
100
AcDbSymbolTableRecord
100
AcDbLinetypeTableRecord
  2
Continuous
 70
     0
  3
Solid line
 72
    65
 73
     0
 40
0.0
  0
LTYPE
  5
6E
330
5
100
AcDbSymbolTableRecord
100
AcDbLinetypeTableRecord
  2
HIDDEN
 70
     0
  3
Hidden __ __ __ __ __ __ __ __ __ __ __ __ __ __
 72
    65
 73
     2
 40
1.905
 49
1.27
 74
     0
 49
-0.635
 74
     0
  0
LTYPE
  5
6F
330
5
100
AcDbSymbolTableRecord
100
AcDbLinetypeTableRecord
  2
PHANTOM
 70
     0
  3
Phantom ______  __  __  ______  __  __  ______
 72
    65
 73
     6
 40
12.7
 49
6.35
 74
     0
 49
-1.27
 74
     0
 49
1.27
 74
     0
 49
-1.27
 74
     0
 49
1.27
 74
     0
 49
-1.27
 74
     0
  0
LTYPE
  5
70
330
5
100
AcDbSymbolTableRecord
100
AcDbLinetypeTableRecord
  2
CENTER
 70
     0
  3
Center ____ _ ____ _ ____ _ ____ _ ____ _ ____
 72
    65
 73
     4
 40
10.16
 49
6.35
 74
     0
 49
-1.27
 74
     0
 49
1.27
 74
     0
 49
-1.27
 74
     0
  0
LTYPE
  5
71
330
5
100
AcDbSymbolTableRecord
100
AcDbLinetypeTableRecord
  2
CENTERX2
 70
     0
  3
Center (2x) ________  __  ________  __  _____
 72
    65
 73
     4
 40
20.32
 49
12.7
 74
     0
 49
-2.54
 74
     0
 49
2.54
 74
     0
 49
-2.54
 74
     0
  0
LTYPE
  5
72
330
5
100
AcDbSymbolTableRecord
100
AcDbLinetypeTableRecord
  2
DOT2
 70
     0
  3
Dot (.5x) ........................................
 72
    65
 73
     2
 40
0.635
 49
0.0
 74
     0
 49
-0.635
 74
     0
  0
ENDTAB
  0
TABLE
  2
LAYER
  5
2
330
0
100
AcDbSymbolTable
 70
     1
  0
LAYER
  5
10
330
2
100
AcDbSymbolTableRecord
100
AcDbLayerTableRecord
  2
0
 70
     0
 62
     7
  6
Continuous
370
    -3
390
F
  0
ENDTAB
  0
TABLE
  2
STYLE
  5
3
330
0
100
AcDbSymbolTable
 70
     1
  0
STYLE
  5
11
330
3
100
AcDbSymbolTableRecord
100
AcDbTextStyleTableRecord
  2
Standard
 70
     0
 40
0.0
 41
1.0
 50
0.0
 71
     0
 42
3.175
  3
txt
  4

  0
ENDTAB
  0
TABLE
  2
VIEW
  5
6
330
0
100
AcDbSymbolTable
 70
     0
  0
ENDTAB
  0
TABLE
  2
UCS
  5
7
330
0
100
AcDbSymbolTable
 70
     0
  0
ENDTAB
  0
TABLE
  2
APPID
  5
9
330
0
100
AcDbSymbolTable
 70
     1
  0
APPID
  5
12
330
9
100
AcDbSymbolTableRecord
100
AcDbRegAppTableRecord
  2
ACAD
 70
     0
  0
ENDTAB
  0
TABLE
  2
DIMSTYLE
  5
A
330
0
100
AcDbSymbolTable
 70
     1
100
AcDbDimStyleTable
  0
DIMSTYLE
105
27
330
A
100
AcDbSymbolTableRecord
100
AcDbDimStyleTableRecord
  2
ISO-25
 70
     0
 41
2.5
 42
0.625
 43
3.75
 44
1.25
 73
     0
 74
     0
 77
     1
 78
     8
140
2.5
141
2.5
143
0.0393700787
147
0.625
171
     3
172
     1
178
     0
271
     2
272
     2
274
     3
278
    44
283
     0
284
     8
340
11
  0
ENDTAB
  0
TABLE
  2
BLOCK_RECORD
  5
1
330
0
100
AcDbSymbolTable
 70
     1
  0
BLOCK_RECORD
  5
1F
330
1
100
AcDbSymbolTableRecord
100
AcDbBlockTableRecord
  2
*Model_Space
340
22
  0
BLOCK_RECORD
  5
1B
330
1
100
AcDbSymbolTableRecord
100
AcDbBlockTableRecord
  2
*Paper_Space
340
1E
  0
BLOCK_RECORD
  5
23
330
1
100
AcDbSymbolTableRecord
100
AcDbBlockTableRecord
  2
*Paper_Space0
340
26
  0
ENDTAB
  0
ENDSEC
  0
SECTION
  2
BLOCKS
  0
BLOCK
  5
20
330
1F
100
AcDbEntity
  8
0
100
AcDbBlockBegin
  2
*Model_Space
 70
     0
 10
0.0
 20
0.0
 30
0.0
  3
*Model_Space
  1

  0
ENDBLK
  5
21
330
1F
100
AcDbEntity
  8
0
100
AcDbBlockEnd
  0
BLOCK
  5
1C
330
1B
100
AcDbEntity
 67
     1
  8
0
100
AcDbBlockBegin
  2
*Paper_Space
 70
     0
 10
0.0
 20
0.0
 30
0.0
  3
*Paper_Space
  1

  0
ENDBLK
  5
1D
330
1B
100
AcDbEntity
 67
     1
  8
0
100
AcDbBlockEnd
  0
BLOCK
  5
24
330
23
100
AcDbEntity
  8
0
100
AcDbBlockBegin
  2
*Paper_Space0
 70
     0
 10
0.0
 20
0.0
 30
0.0
  3
*Paper_Space0
  1

  0
ENDBLK
  5
25
330
23
100
AcDbEntity
  8
0
100
AcDbBlockEnd
  0
ENDSEC
  0
SECTION
  2
ENTITIES
  0
CIRCLE
  5
73
330
1F
100
AcDbEntity
  8
0
  6
Continuous
 62
     7
370
    15
100
AcDbCircle
 10
-58.0
 20
30.0
 30
0.0
 40
2.599999999999966
  0
CIRCLE
  5
74
330
1F
100
AcDbEntity
  8
0
  6
Continuous
 62
     7
370
    15
100
AcDbCircle
 10
58.0
 20
30.0
 30
0.0
 40
2.599999999999966
  0
CIRCLE
  5
75
330
1F
100
AcDbEntity
  8
0
  6
Continuous
 62
     7
370
    15
100
AcDbCircle
 10
58.0
 20
10.0
 30
0.0
 40
2.60000000000006
  0
CIRCLE
  5
76
330
1F
100
AcDbEntity
  8
0
  6
Continuous
 62
     7
370
    15
100
AcDbCircle
 10
-58.0
 20
10.0
 30
0.0
 40
2.600000000000061
  0
SPLINE
  5
77
330
1F
100
AcDbEntity
  8
0
  6
Continuous
 62
     7
370
    15
100
AcDbSpline
210
0.0
220
0.0
230
1.0
 70
     8
 71
     3
 72
    11
 73
     7
 74
     0
 42
0.000000001
 43
0.00000001
 40
0.0
 40
0.0
 40
0.0
 40
0.0
 40
0.2165053849234002
 40
0.4458799692786409
 40
0.6994965763107939
 40
1.0
 40
1.0
 40
1.0
 40
1.0
 10
-29.25169427710842
 20
8.895896084337366
 30
0.0
 10
-29.24481048143481
 20
8.81628840248926
 30
0.0
 10
-29.23063371347796
 20
8.652341114299007
 30
0.0
 10
-29.10154769120821
 20
8.42473673962691
 30
0.0
 10
-28.90796464923783
 20
8.21163703652711
 30
0.0
 10
-28.73902132996655
 20
8.09870580057168
 30
0.0
 10
-28.64740210843372
 20
8.037462349397607
 30
0.0
  0
SPLINE
  5
78
330
1F
100
AcDbEntity
  8
0
  6
Continuous
 62
     7
370
    15
100
AcDbSpline
210
0.0
220
0.0
230
1.0
 70
     8
 71
     3
 72
    15
 73
    11
 74
     0
 42
0.000000001
 43
0.00000001
 40
0.0
 40
0.0
 40
0.0
 40
0.0
 40
0.1971447657591775
 40
0.3715031601409745
 40
0.5242142232726095
 40
0.6575967277037986
 40
0.7690129411723506
 40
0.8609633242294544
 40
0.9378878161549418
 40
1.0
 40
1.0
 40
1.0
 40
1.0
 10
-28.64740210843372
 20
8.037462349397607
 30
0.0
 10
-28.54872719953248
 20
7.977475118352725
 30
0.0
 10
-28.36278241757357
 20
7.864434095856068
 30
0.0
 10
-28.11217803614005
 20
7.686962707098304
 30
0.0
 10
-27.89493017955502
 20
7.52714605273807
 30
0.0
 10
-27.71708625542305
 20
7.37672424899166
 30
0.0
 10
-27.57867509521745
 20
7.235334448670887
 30
0.0
 10
-27.48039385215433
 20
7.104093973843018
 30
0.0
 10
-27.41428298553297
 20
6.983280800103969
 30
0.0
 10
-27.40391593542906
 20
6.901929575058756
 30
0.0
 10
-27.3992846385542
 20
6.865587349397607
 30
0.0
  0
SPLINE
  5
7A
330
1F
100
AcDbEntity
  8
0
  6
Continuous
 62
     7
370
    15
100
AcDbSpline
210
0.0
220
0.0
230
1.0
 70
     8
 71
     3
 72
    11
 73
     7
 74
     0
 42
0.000000001
 43
0.00000001
 40
0.0
 40
0.0
 40
0.0
 40
0.0
 40
0.2495234723826892
 40
0.4890906920476962
 40
0.7337123556199232
 40
1.0
 40
1.0
 40
1.0
 40
1.0
 10
-27.37951807228914
 20
3.782003012048209
 30
0.0
 10
-27.37458918437874
 20
3.687691355743194
 30
0.0
 10
-27.36492807644327
 20
3.502831178823084
 30
0.0
 10
-27.25663214240595
 20
3.244988626925478
 30
0.0
 10
-27.09676410374739
 20
3.008888952165965
 30
0.0
 10
-26.94479444505911
 20
2.889688116297886
 30
0.0
 10
-26.86558734939758
 20
2.827560240963872
 30
0.0
  0
SPLINE
  5
7B
330
1F
100
AcDbEntity
  8
0
  6
Continuous
 62
     7
370
    15
100
AcDbSpline
210
0.0
220
0.0
230
1.0
 70
     8
 71
     3
 72
    11
 73
     7
 74
     0
 42
0.000000001
 43
0.00000001
 40
0.0
 40
0.0
 40
0.0
 40
0.0
 40
0.2616399003364053
 40
0.5100414205439214
 40
0.7556782010243575
 40
1.0
 40
1.0
 40
1.0
 40
1.0
 10
-26.86558734939758
 20
2.827560240963872
 30
0.0
 10
-26.78333451190205
 20
2.775611606384463
 30
0.0
 10
-26.62299064223217
 20
2.674342819237963
 30
0.0
 10
-26.35975474083148
 20
2.575024015866355
 30
0.0
 10
-26.09375801260866
 20
2.50402650576553
 30
0.0
 10
-25.91161180742729
 20
2.497571333415685
 30
0.0
 10
-25.82078313253011
 20
2.494352409638571
 30
0.0
  0
SPLINE
  5
7C
330
1F
100
AcDbEntity
  8
0
  6
Continuous
 62
     7
370
    15
100
AcDbSpline
210
0.0
220
0.0
230
1.0
 70
     8
 71
     3
 72
     9
 73
     5
 74
     0
 42
0.000000001
 43
0.00000001
 40
0.0
 40
0.0
 40
0.0
 40
0.0
 40
0.6337161902198016
 40
1.0
 40
1.0
 40
1.0
 40
1.0
 10
-25.82078313253011
 20
2.494352409638571
 30
0.0
 10
-25.76788258850244
 20
2.494251410171894
 30
0.0
 10
-25.68440587630209
 20
2.494092033674599
 30
0.0
 10
-25.6023462640363
 20
2.508750000112959
 30
0.0
 10
-25.57228915662649
 20
2.514118975903632
 30
0.0
  0
SPLINE
  5
80
330
1F
100
AcDbEntity
  8
0
  6
Continuous
 62
     7
370
    15
100
AcDbSpline
210
0.0
220
0.0
230
1.0
 70
     8
 71
     3
 72
     9
 73
     5
 74
     0
 42
0.000000001
 43
0.00000001
 40
0.0
 40
0.0
 40
0.0
 40
0.0
 40
0.3780283083271109
 40
0.9999999999999999
 40
0.9999999999999999
 40
0.9999999999999999
 40
0.9999999999999999
 10
-43.10240963855421
 20
2.514118975903632
 30
0.0
 10
-43.07424098554854
 20
2.50873935536151
 30
0.0
 10
-42.99972631988683
 20
2.494508620721748
 30
0.0
 10
-42.92375687083722
 20
2.494412311344722
 30
0.0
 10
-42.87650602409637
 20
2.494352409638571
 30
0.0
  0
SPLINE
  5
81
330
1F
100
AcDbEntity
  8
0
  6
Continuous
 62
     7
370
    15
100
AcDbSpline
210
0.0
220
0.0
230
1.0
 70
     8
 71
     3
 72
    11
 73
     7
 74
     0
 42
0.000000001
 43
0.00000001
 40
0.0
 40
0.0
 40
0.0
 40
0.0
 40
0.2509400072600665
 40
0.4981082352261435
 40
0.7433156208039209
 40
1.0
 40
1.0
 40
1.0
 40
1.0
 10
-42.87650602409637
 20
2.494352409638571
 30
0.0
 10
-42.78378988968926
 20
2.497472699282874
 30
0.0
 10
-42.59975120016039
 20
2.503666378740719
 30
0.0
 10
-42.33344292778106
 20
2.574091726678605
 30
0.0
 10
-42.07471745442019
 20
2.673971504374902
 30
0.0
 10
-41.91953747106268
 20
2.775589414018894
 30
0.0
 10
-41.84017319277107
 20
2.827560240963872
 30
0.0
  0
SPLINE
  5
82
330
1F
100
AcDbEntity
  8
0
  6
Continuous
 62
     7
370
    15
100
AcDbSpline
210
0.0
220
0.0
230
1.0
 70
     8
 71
     3
 72
    11
 73
     7
 74
     0
 42
0.000000001
 43
0.00000001
 40
0.0
 40
0.0
 40
0.0
 40
0.0
 40
0.2666686819988245
 40
0.5142747068004906
 40
0.7515933878012804
 40
1.0
 40
1.0
 40
1.0
 40
1.0
 10
-41.84017319277107
 20
2.827560240963872
 30
0.0
 10
-41.76073021294868
 20
2.89010275726981
 30
0.0
 10
-41.60752318897689
 20
3.010716974112648
 30
0.0
 10
-41.43580527727568
 20
3.241551660491468
 30
0.0
 10
-41.33430776289908
 20
3.504005986245045
 30
0.0
 10
-41.32149825044513
 20
3.687937764545275
 30
0.0
 10
-41.31494728915661
 20
3.782003012048209
 30
0.0
  0
SPLINE
  5
84
330
1F
100
AcDbEntity
  8
0
  6
Continuous
 62
     7
370
    15
100
AcDbSpline
210
0.0
220
0.0
230
1.0
 70
     8
 71
     3
 72
    15
 73
    11
 74
     0
 42
0.000000001
 43
0.00000001
 40
0.0
 40
0.0
 40
0.0
 40
0.0
 40
0.0847892953847414
 40
0.174192533212095
 40
0.2749243222235049
 40
0.3876305991647255
 40
0.5166302311045101
 40
0.6606435918863633
 40
0.8219141579098361
 40
1.0
 40
1.0
 40
1.0
 40
1.0
 10
-41.29518072289155
 20
6.865587349397607
 30
0.0
 10
-41.29231778465576
 20
6.905463948427493
 30
0.0
 10
-41.28643611691151
 20
6.987387094142758
 30
0.0
 10
-41.24031500448252
 20
7.109820803704641
 30
0.0
 10
-41.16421997222282
 20
7.230353632254624
 30
0.0
 10
-41.06418232984514
 20
7.356717527846833
 30
0.0
 10
-40.93323388036389
 20
7.48254836209752
 30
0.0
 10
-40.7731716279042
 20
7.609092859468645
 30
0.0
 10
-40.58714970776809
 20
7.739506596112951
 30
0.0
 10
-40.44961965581601
 20
7.820095819023853
 30
0.0
 10
-40.37744728915661
 20
7.862387048192788
 30
0.0
  0
SPLINE
  5
85
330
1F
100
AcDbEntity
  8
0
  6
Continuous
 62
     7
370
    15
100
AcDbSpline
210
0.0
220
0.0
230
1.0
 70
     8
 71
     3
 72
    15
 73
    11
 74
     0
 42
0.000000001
 43
0.00000001
 40
0.0
 40
0.0
 40
0.0
 40
0.0
 40
0.1783815544073354
 40
0.3389098299738019
 40
0.4815709391445219
 40
0.6110303388508154
 40
0.7232722805192536
 40
0.8244961710173193
 40
0.9156848675841384
 40
1.0
 40
1.0
 40
1.0
 40
1.0
 10
-40.37744728915661
 20
7.862387048192788
 30
0.0
 10
-40.30321850219514
 20
7.906341781070905
 30
0.0
 10
-40.16219010017306
 20
7.989852047004844
 30
0.0
 10
-39.97426257143188
 20
8.127380047212263
 30
0.0
 10
-39.80902457252346
 20
8.255970067708734
 30
0.0
 10
-39.67794425680837
 20
8.388052471125748
 30
0.0
 10
-39.5721215976147
 20
8.516356398802516
 30
0.0
 10
-39.49846865264163
 20
8.644157168909395
 30
0.0
 10
-39.44821944874789
 20
8.7699034626814
 30
0.0
 10
-39.4426317284583
 20
8.855009597372892
 30
0.0
 10
-39.43994728915661
 20
8.895896084337366
 30
0.0
  0
SPLINE
  5
89
330
1F
100
AcDbEntity
  8
0
  6
Continuous
 62
     7
370
    15
100
AcDbSpline
210
0.0
220
0.0
230
1.0
 70
     8
 71
     3
 72
    15
 73
    11
 74
     0
 42
0.000000001
 43
0.00000001
 40
0.0
 40
0.0
 40
0.0
 40
0.0
 40
0.1908571557678552
 40
0.3591733810811681
 40
0.5043460058244336
 40
0.63150016566987
 40
0.7383525218961885
 40
0.83380469832424
 40
0.9182033268501606
 40
1.0
 40
1.0
 40
1.0
 40
1.0
 10
-31.02786144578312
 20
-3.187123493975888
 30
0.0
 10
-31.09955672500051
 20
-3.17187719068289
 30
0.0
 10
-31.23447980787091
 20
-3.143185228462752
 30
0.0
 10
-31.42156271114062
 20
-3.091629593539858
 30
0.0
 10
-31.57864135745438
 20
-3.028072339157332
 30
0.0
 10
-31.70932441523014
 20
-2.962944087230694
 30
0.0
 10
-31.81201058515635
 20
-2.887832108780533
 30
0.0
 10
-31.88771895002973
 20
-2.806824155490804
 30
0.0
 10
-31.93438197799692
 20
-2.715141931019432
 30
0.0
 10
-31.94000405532429
 20
-2.651073399574738
 30
0.0
 10
-31.94277108433734
 20
-2.619540662650586
 30
0.0
  0
SPLINE
  5
8D
330
1F
100
AcDbEntity
  8
0
  6
Continuous
 62
     7
370
    15
100
AcDbSpline
210
0.0
220
0.0
230
1.0
 70
     8
 71
     3
 72
    15
 73
    11
 74
     0
 42
0.000000001
 43
0.00000001
 40
0.0
 40
0.0
 40
0.0
 40
0.0
 40
0.0774935546541891
 40
0.1591955009131317
 40
0.2536872983450781
 40
0.3639722247067555
 40
0.4906068747891756
 40
0.6396033146440415
 40
0.8087578440731088
 40
1.0
 40
1.0
 40
1.0
 40
1.0
 10
-36.90135542168673
 20
-2.563064759036128
 30
0.0
 10
-36.90443160529233
 20
-2.592624526123227
 30
0.0
 10
-36.91075102878737
 20
-2.653349343165176
 30
0.0
 10
-36.95370996559267
 20
-2.742440166442761
 30
0.0
 10
-37.02841064050053
 20
-2.823142072114771
 30
0.0
 10
-37.12478404985853
 20
-2.905200966198278
 30
0.0
 10
-37.24889843561845
 20
-2.985297501888879
 30
0.0
 10
-37.40209814353622
 20
-3.058548341112259
 30
0.0
 10
-37.58021247697507
 20
-3.136428088647607
 30
0.0
 10
-37.71044740551876
 20
-3.18061746176343
 30
0.0
 10
-37.77955572289156
 20
-3.204066265060226
 30
0.0
  0
SPLINE
  5
8E
330
1F
100
AcDbEntity
  8
0
  6
Continuous
 62
     7
370
    15
100
AcDbSpline
210
0.0
220
0.0
230
1.0
 70
     8
 71
     3
 72
    15
 73
    11
 74
     0
 42
0.000000001
 43
0.00000001
 40
0.0
 40
0.0
 40
0.0
 40
0.0
 40
0.171889763028876
 40
0.3265442739431953
 40
0.4630209095762092
 40
0.5876410266511349
 40
0.6986632980864582
 40
0.8008375817230475
 40
0.8993289232839748
 40
1.0
 40
1.0
 40
1.0
 40
1.0
 10
-37.77955572289156
 20
-3.204066265060226
 30
0.0
 10
-37.84677690766884
 20
-3.227531772329841
 30
0.0
 10
-37.9744790615953
 20
-3.272109918806072
 30
0.0
 10
-38.14954510745616
 20
-3.350784480462561
 30
0.0
 10
-38.30017218435848
 20
-3.434979398505796
 30
0.0
 10
-38.42189832029357
 20
-3.530601488967639
 30
0.0
 10
-38.51720382699021
 20
-3.633700830930245
 30
0.0
 10
-38.58824324653042
 20
-3.742462966114614
 30
0.0
 10
-38.62943777757664
 20
-3.862017238813194
 30
0.0
 10
-38.63511817469136
 20
-3.944543031552825
 30
0.0
 10
-38.63798945783132
 20
-3.986257530120469
 30
0.0
  0
SPLINE
  5
92
330
1F
100
AcDbEntity
  8
0
  6
Continuous
 62
     7
370
    15
100
AcDbSpline
210
0.0
220
0.0
230
1.0
 70
     8
 71
     3
 72
    15
 73
    11
 74
     0
 42
0.000000001
 43
0.00000001
 40
0.0
 40
0.0
 40
0.0
 40
0.0
 40
0.1104723531175083
 40
0.2161784193711257
 40
0.3206644242063278
 40
0.43268048074952
 40
0.5520010616847333
 40
0.6851951060727418
 40
0.8342258493358736
 40
1.0
 40
1.0
 40
1.0
 40
1.0
 10
-30.07059487951806
 20
-3.926957831325285
 30
0.0
 10
-30.07597184696603
 20
-3.878507937249861
 30
0.0
 10
-30.08649379468519
 20
-3.783698501003105
 30
0.0
 10
-30.13879170661279
 20
-3.650653944712597
 30
0.0
 10
-30.22178557994132
 20
-3.534558039772342
 30
0.0
 10
-30.32982257418193
 20
-3.432381486425353
 30
0.0
 10
-30.46666191839945
 20
-3.347259993884077
 30
0.0
 10
-30.62913547871421
 20
-3.27648317408567
 30
0.0
 10
-30.81989185754268
 20
-3.225013828153926
 30
0.0
 10
-30.95612302472099
 20
-3.200193639329572
 30
0.0
 10
-31.02786144578312
 20
-3.187123493975888
 30
0.0
  0
SPLINE
  5
93
330
1F
100
AcDbEntity
  8
0
  6
Continuous
 62
     7
370
    15
100
AcDbSpline
210
0.0
220
0.0
230
1.0
 70
     8
 71
     3
 72
    11
 73
     7
 74
     0
 42
0.000000001
 43
0.00000001
 40
0.0
 40
0.0
 40
0.0
 40
0.0
 40
0.3216471690798712
 40
0.5919197583027357
 40
0.8167326039262629
 40
1.0
 40
1.0
 40
1.0
 40
1.0
 10
-7.019954819277106
 20
-3.122176204819259
 30
0.0
 10
-7.126788486752173
 20
-3.063203193033503
 30
0.0
 10
-7.323391984962143
 20
-2.954676539488039
 30
0.0
 10
-7.574872076266815
 20
-2.773961025043903
 30
0.0
 10
-7.764637257647367
 20
-2.596298519792622
 30
0.0
 10
-7.843135341739541
 20
-2.462290819089969
 30
0.0
 10
-7.878388554216865
 20
-2.402108433734923
 30
0.0
  0
SPLINE
  5
99
330
1F
100
AcDbEntity
  8
0
  6
Continuous
 62
     7
370
    15
100
AcDbSpline
210
0.0
220
0.0
230
1.0
 70
     8
 71
     3
 72
    15
 73
    11
 74
     0
 42
0.000000001
 43
0.00000001
 40
0.0
 40
0.0
 40
0.0
 40
0.0
 40
0.109319393144908
 40
0.2116419399094449
 40
0.3116776605659155
 40
0.4157935100398473
 40
0.534450230437518
 40
0.6681007647727841
 40
0.8230007682232873
 40
1.0
 40
1.0
 40
1.0
 40
1.0
 10
-16.56438253012048
 20
0.6024096385542337
 30
0.0
 10
-16.59488458587299
 20
0.6014914465207345
 30
0.0
 10
-16.6539364527465
 20
0.5997138301473831
 30
0.0
 10
-16.73458158266461
 20
0.5655411046736423
 30
0.0
 10
-16.80580642746705
 20
0.5176405619999047
 30
0.0
 10
-16.85924755364724
 20
0.4447550838564234
 30
0.0
 10
-16.90648369119403
 20
0.3574143571326935
 30
0.0
 10
-16.9306595579631
 20
0.2464985040288754
 30
0.0
 10
-16.95268990156242
 20
0.1194848724519852
 30
0.0
 10
-16.95358755408437
 20
0.0274385029717834
 30
0.0
 10
-16.95406626506024
 20
-0.0216490963855266
 30
0.0
  0
SPLINE
  5
9A
330
1F
100
AcDbEntity
  8
0
  6
Continuous
 62
     7
370
    15
100
AcDbSpline
210
0.0
220
0.0
230
1.0
 70
     8
 71
     3
 72
    15
 73
    11
 74
     0
 42
0.000000001
 43
0.00000001
 40
0.0
 40
0.0
 40
0.0
 40
0.0
 40
0.1743333332042258
 40
0.3272745418958893
 40
0.4604677698218993
 40
0.5780659368524479
 40
0.6853843321317497
 40
0.7866421756381644
 40
0.8874723177882835
 40
1.0
 40
1.0
 40
1.0
 40
1.0
 10
-16.95406626506024
 20
-0.0216490963855266
 30
0.0
 10
-16.95344883490798
 20
-0.0716297791038475
 30
0.0
 10
-16.95228973832837
 20
-0.1654581063642475
 30
0.0
 10
-16.93183990951212
 20
-0.2960795482833383
 30
0.0
 10
-16.90249746764342
 20
-0.4082527535726726
 30
0.0
 10
-16.85736651403523
 20
-0.501407507674521
 30
0.0
 10
-16.79683738314785
 20
-0.5735907694678997
 30
0.0
 10
-16.72483578335791
 20
-0.627254594729008
 30
0.0
 10
-16.63784826133193
 20
-0.6557075112832729
 30
0.0
 10
-16.57680890932456
 20
-0.6602531654691223
 30
0.0
 10
-16.54461596385542
 20
-0.6626506024096229
 30
0.0
  0
SPLINE
  5
9B
330
1F
100
AcDbEntity
  8
0
  6
Continuous
 62
     7
370
    15
100
AcDbSpline
210
0.0
220
0.0
230
1.0
 70
     8
 71
     3
 72
    15
 73
    11
 74
     0
 42
0.000000001
 43
0.00000001
 40
0.0
 40
0.0
 40
0.0
 40
0.0
 40
0.2047642274068211
 40
0.38653683972585
 40
0.5453150164592006
 40
0.6811121642266368
 40
0.7950127902154684
 40
0.8859238289134226
 40
0.9538930018012745
 40
1.0
 40
1.0
 40
1.0
 40
1.0
 10
-16.54461596385542
 20
-0.6626506024096229
 30
0.0
 10
-16.36859821189557
 20
-0.6623277295208473
 30
0.0
 10
-16.03632657226472
 20
-0.6617182369955139
 30
0.0
 10
-15.56758521612478
 20
-0.6657278672673322
 30
0.0
 10
-15.15810974306686
 20
-0.6671558506529673
 30
0.0
 10
-14.80703069246081
 20
-0.6735038266145882
 30
0.0
 10
-14.51430276706058
 20
-0.6792660090874144
 30
0.0
 10
-14.27984957096271
 20
-0.6836156331487524
 30
0.0
 10
-14.1038003214185
 20
-0.691847496520336
 30
0.0
 10
-14.00601398197321
 20
-0.6992085601550784
 30
0.0
 10
-13.96649096385542
 20
-0.7021837349397431
 30
0.0
  0
SPLINE
  5
9C
330
1F
100
AcDbEntity
  8
0
  6
Continuous
 62
     7
370
    15
100
AcDbSpline
210
0.0
220
0.0
230
1.0
 70
     8
 71
     3
 72
    11
 73
     7
 74
     0
 42
0.000000001
 43
0.00000001
 40
0.0
 40
0.0
 40
0.0
 40
0.0
 40
0.2027507061549977
 40
0.4328459186974174
 40
0.6943983330212828
 40
1.0
 40
1.0
 40
1.0
 40
1.0
 10
-13.96649096385542
 20
-0.7021837349397431
 30
0.0
 10
-13.90941602447893
 20
-0.740873881528258
 30
0.0
 10
-13.78756858415423
 20
-0.8234722229211646
 30
0.0
 10
-13.64652660068384
 20
-1.015765930782727
 30
0.0
 10
-13.52739554013004
 20
-1.258178887419983
 30
0.0
 10
-13.47142426375651
 20
-1.44187127554854
 30
0.0
 10
-13.44126506024096
 20
-1.540850903614442
 30
0.0
  0
SPLINE
  5
9E
330
1F
100
AcDbEntity
  8
0
  6
Continuous
 62
     7
370
    15
100
AcDbSpline
210
0.0
220
0.0
230
1.0
 70
     8
 71
     3
 72
     9
 73
     5
 74
     0
 42
0.000000001
 43
0.00000001
 40
0.0
 40
0.0
 40
0.0
 40
0.0
 40
0.6022152199156298
 40
1.0
 40
1.0
 40
1.0
 40
1.0
 10
-13.20689006024096
 20
-2.537650602409621
 30
0.0
 10
-13.18417518327727
 20
-2.586683098368552
 30
0.0
 10
-13.14645631432064
 20
-2.668103318810341
 30
0.0
 10
-13.13312627996528
 20
-2.756592513732663
 30
0.0
 10
-13.12782379518072
 20
-2.791792168674683
 30
0.0
  0
SPLINE
  5
9F
330
1F
100
AcDbEntity
  8
0
  6
Continuous
 62
     7
370
    15
100
AcDbSpline
210
0.0
220
0.0
230
1.0
 70
     8
 71
     3
 72
    15
 73
    11
 74
     0
 42
0.000000001
 43
0.00000001
 40
0.0
 40
0.0
 40
0.0
 40
0.0
 40
0.0623241730475956
 40
0.1343605878092962
 40
0.2243001079687018
 40
0.3308971079955388
 40
0.4630922131845674
 40
0.6169992546497173
 40
0.7969631235704244
 40
1.0
 40
1.0
 40
1.0
 40
1.0
 10
-13.12782379518072
 20
-2.791792168674683
 30
0.0
 10
-13.13108911442656
 20
-2.813024734387864
 30
0.0
 10
-13.13812860154373
 20
-2.858798627091487
 30
0.0
 10
-13.18342119726953
 20
-2.922999314761867
 30
0.0
 10
-13.25165242395428
 20
-2.984482145607851
 30
0.0
 10
-13.34975459065092
 20
-3.039719772493244
 30
0.0
 10
-13.46956065515302
 20
-3.099269818197798
 30
0.0
 10
-13.6187598097869
 20
-3.154386593394613
 30
0.0
 10
-13.79271364352048
 20
-3.211138556172524
 30
0.0
 10
-13.91920288255714
 20
-3.243425937917498
 30
0.0
 10
-13.98625753012048
 20
-3.260542168674684
 30
0.0
  0
SPLINE
  5
A0
330
1F
100
AcDbEntity
  8
0
  6
Continuous
 62
     7
370
    15
100
AcDbSpline
210
0.0
220
0.0
230
1.0
 70
     8
 71
     3
 72
    15
 73
    11
 74
     0
 42
0.000000001
 43
0.00000001
 40
0.0
 40
0.0
 40
0.0
 40
0.0
 40
0.195884050238784
 40
0.3669449241664068
 40
0.5178483580990737
 40
0.6474796934414825
 40
0.7573085647624671
 40
0.8488072114349376
 40
0.9278145841723066
 40
1.0
 40
1.0
 40
1.0
 40
1.0
 10
-13.98625753012048
 20
-3.260542168674684
 30
0.0
 10
-14.05506661712961
 20
-3.278962342110329
 30
0.0
 10
-14.18396504037409
 20
-3.3134684141271
 30
0.0
 10
-14.36443478793343
 20
-3.368183778020905
 30
0.0
 10
-14.51602200667181
 20
-3.43170179202354
 30
0.0
 10
-14.64520974426314
 20
-3.491049510657672
 30
0.0
 10
-14.74571210987745
 20
-3.558725226202944
 30
0.0
 10
-14.81869390676101
 20
-3.630266528581821
 30
0.0
 10
-14.8686848356803
 20
-3.705312430385695
 30
0.0
 10
-14.87920273604864
 20
-3.759768561807479
 30
0.0
 10
-14.88422439759036
 20
-3.785768072289142
 30
0.0
  0
SPLINE
  5
A4
330
1F
100
AcDbEntity
  8
0
  6
Continuous
 62
     7
370
    15
100
AcDbSpline
210
0.0
220
0.0
230
1.0
 70
     8
 71
     3
 72
    11
 73
     7
 74
     0
 42
0.000000001
 43
0.00000001
 40
0.0
 40
0.0
 40
0.0
 40
0.0
 40
0.1601864663360799
 40
0.3727417883240579
 40
0.6517668985931463
 40
1.0
 40
1.0
 40
1.0
 40
1.0
 10
-6.297063253012044
 20
-3.74905873493974
 30
0.0
 10
-6.317012267520294
 20
-3.700327558046404
 30
0.0
 10
-6.363432115046657
 20
-3.586933796152377
 30
0.0
 10
-6.519623866847783
 20
-3.43603099430689
 30
0.0
 10
-6.742163950172601
 20
-3.277805804004916
 30
0.0
 10
-6.920788404780746
 20
-3.177733212112184
 30
0.0
 10
-7.019954819277106
 20
-3.122176204819259
 30
0.0
  0
SPLINE
  5
A5
330
1F
100
AcDbEntity
  8
0
  6
Continuous
 62
     7
370
    15
100
AcDbSpline
210
0.0
220
0.0
230
1.0
 70
     8
 71
     3
 72
     9
 73
     5
 74
     0
 42
0.000000001
 43
0.00000001
 40
0.0
 40
0.0
 40
0.0
 40
0.0
 40
0.4925657687150193
 40
1.0
 40
1.0
 40
1.0
 40
1.0
 10
-17.48211596385542
 20
3.471385542168691
 30
0.0
 10
-17.46447176795687
 20
3.511251919439636
 30
0.0
 10
-17.42865077303759
 20
3.592188070108295
 30
0.0
 10
-17.42478028379417
 20
3.680642369180299
 30
0.0
 10
-17.42281626506024
 20
3.725527108433751
 30
0.0
  0
SPLINE
  5
A6
330
1F
100
AcDbEntity
  8
0
  6
Continuous
 62
     7
370
    15
100
AcDbSpline
210
0.0
220
0.0
230
1.0
 70
     8
 71
     3
 72
    11
 73
     7
 74
     0
 42
0.000000001
 43
0.00000001
 40
0.0
 40
0.0
 40
0.0
 40
0.0
 40
0.2157944719690844
 40
0.4518687128909794
 40
0.7113459262706253
 40
1.0
 40
1.0
 40
1.0
 40
1.0
 10
-17.42281626506024
 20
3.725527108433751
 30
0.0
 10
-17.43134015160337
 20
3.862717660025215
 30
0.0
 10
-17.44918897602378
 20
4.149991552645224
 30
0.0
 10
-17.57365757106449
 20
4.587584293163616
 30
0.0
 10
-17.77058066409925
 20
5.046667008063642
 30
0.0
 10
-17.95156562995294
 20
5.344729921594226
 30
0.0
 10
-18.046875
 20
5.50169427710845
 30
0.0
  0
SPLINE
  5
A7
330
1F
100
AcDbEntity
  8
0
  6
Continuous
 62
     7
370
    15
100
AcDbSpline
210
0.0
220
0.0
230
1.0
 70
     8
 71
     3
 72
    11
 73
     7
 74
     0
 42
0.000000001
 43
0.00000001
 40
0.0
 40
0.0
 40
0.0
 40
0.0
 40
0.2477322872886366
 40
0.4897851426928387
 40
0.7421239676893931
 40
1.0
 40
1.0
 40
1.0
 40
1.0
 10
-18.046875
 20
5.50169427710845
 30
0.0
 10
-18.07910242288723
 20
5.516291272018582
 30
0.0
 10
-18.14281843298104
 20
5.545150615760948
 30
0.0
 10
-18.23537380149654
 20
5.597109330266223
 30
0.0
 10
-18.32382729239296
 20
5.658120140288231
 30
0.0
 10
-18.38558048036564
 20
5.696768706929006
 30
0.0
 10
-18.4167921686747
 20
5.71630271084339
 30
0.0
  0
SPLINE
  5
A9
330
1F
100
AcDbEntity
  8
0
  6
Continuous
 62
     7
370
    15
100
AcDbSpline
210
0.0
220
0.0
230
1.0
 70
     8
 71
     3
 72
    15
 73
    11
 74
     0
 42
0.000000001
 43
0.00000001
 40
0.0
 40
0.0
 40
0.0
 40
0.0
 40
0.0827203279596632
 40
0.1752044661791044
 40
0.2801676240086867
 40
0.3961483424590186
 40
0.5252271544863218
 40
0.6694837875941275
 40
0.8267369121406669
 40
1.0
 40
1.0
 40
1.0
 40
1.0
 10
-21.71498493975903
 20
-2.150790662650587
 30
0.0
 10
-21.73281715380729
 20
-2.187138393944637
 30
0.0
 10
-21.77058638925613
 20
-2.264124124239384
 30
0.0
 10
-21.85235487978201
 20
-2.374756430315608
 30
0.0
 10
-21.9569575475603
 20
-2.486903913734108
 30
0.0
 10
-22.08589554069902
 20
-2.599601320453552
 30
0.0
 10
-22.23645540831316
 20
-2.71603053239284
 30
0.0
 10
-22.41112659001275
 20
-2.833575716437549
 30
0.0
 10
-22.61032707168921
 20
-2.952683224742911
 30
0.0
 10
-22.75284798169837
 20
-3.028683342486843
 30
0.0
 10
-22.82756024096385
 20
-3.068524096385526
 30
0.0
  0
SPLINE
  5
AA
330
1F
100
AcDbEntity
  8
0
  6
Continuous
 62
     7
370
    15
100
AcDbSpline
210
0.0
220
0.0
230
1.0
 70
     8
 71
     3
 72
    15
 73
    11
 74
     0
 42
0.000000001
 43
0.00000001
 40
0.0
 40
0.0
 40
0.0
 40
0.0
 40
0.1693585643696366
 40
0.3206043271476637
 40
0.4605600389789422
 40
0.5831076030898754
 40
0.6976672652816995
 40
0.8026007970924012
 40
0.902205560422237
 40
1.0
 40
1.0
 40
1.0
 40
1.0
 10
-22.82756024096385
 20
-3.068524096385526
 30
0.0
 10
-22.89398278845616
 20
-3.104312833949446
 30
0.0
 10
-23.01972402997809
 20
-3.172062724064846
 30
0.0
 10
-23.19210895494627
 20
-3.283605794470821
 30
0.0
 10
-23.33811821342104
 20
-3.396663144711424
 30
0.0
 10
-23.45718143729804
 20
-3.515541753910087
 30
0.0
 10
-23.55202457941812
 20
-3.63564368005145
 30
0.0
 10
-23.61786745093433
 20
-3.762263286101124
 30
0.0
 10
-23.66021348196621
 20
-3.891349375512079
 30
0.0
 10
-23.66612336346645
 20
-3.979363425484217
 30
0.0
 10
-23.66905120481928
 20
-4.022966867469862
 30
0.0
  0
SPLINE
  5
AE
330
1F
100
AcDbEntity
  8
0
  6
Continuous
 62
     7
370
    15
100
AcDbSpline
210
0.0
220
0.0
230
1.0
 70
     8
 71
     3
 72
    23
 73
    19
 74
     0
 42
0.000000001
 43
0.00000001
 40
0.0
 40
0.0
 40
0.0
 40
0.0
 40
0.0385863356805047
 40
0.0799316116035226
 40
0.1260924189400145
 40
0.1799622686687082
 40
0.2411450494796672
 40
0.311670126457689
 40
0.3931025960329564
 40
0.4838126215585979
 40
0.5748858131688013
 40
0.6556601618215938
 40
0.7283044049078589
 40
0.7918299526618192
 40
0.8488167854382884
 40
0.9007618497043217
 40
0.9498713769113127
 40
1.0
 40
1.0
 40
1.0
 40
1.0
 10
-17.87179969879518
 20
-3.768825301204804
 30
0.0
 10
-17.87565177043457
 20
-3.738205692545161
 30
0.0
 10
-17.88363133855679
 20
-3.674777159525099
 30
0.0
 10
-17.93268207564178
 20
-3.584854548253247
 30
0.0
 10
-18.01021720200865
 20
-3.503120025858244
 30
0.0
 10
-18.10886813123748
 20
-3.420960445313158
 30
0.0
 10
-18.23553600357124
 20
-3.344474195722664
 30
0.0
 10
-18.39048377526799
 20
-3.275968351457846
 30
0.0
 10
-18.5695087275166
 20
-3.204159870325053
 30
0.0
 10
-18.77028783967663
 20
-3.145462046191969
 30
0.0
 10
-18.96914814567668
 20
-3.082407064219091
 30
0.0
 10
-19.14903277621452
 20
-3.008806878884704
 30
0.0
 10
-19.30246760363936
 20
-2.929304440816365
 30
0.0
 10
-19.42597437931971
 20
-2.8372071689032
 30
0.0
 10
-19.52365652907698
 20
-2.740743333828708
 30
0.0
 10
-19.59837023365603
 20
-2.638522962408688
 30
0.0
 10
-19.63928968201785
 20
-2.523586427041431
 30
0.0
 10
-19.64505473815799
 20
-2.444753478588302
 30
0.0
 10
-19.64796686746988
 20
-2.404932228915645
 30
0.0
  0
SPLINE
  5
AF
330
1F
100
AcDbEntity
  8
0
  6
Continuous
 62
     7
370
    15
100
AcDbSpline
210
0.0
220
0.0
230
1.0
 70
     8
 71
     3
 72
     9
 73
     5
 74
     0
 42
0.000000001
 43
0.00000001
 40
0.0
 40
0.0
 40
0.0
 40
0.0
 40
0.48470777964818
 40
1.0
 40
1.0
 40
1.0
 40
1.0
 10
-19.64796686746988
 20
-2.404932228915647
 30
0.0
 10
-19.64187369923985
 20
-2.29746845065049
 30
0.0
 10
-19.6293028916608
 20
-2.075760067213446
 30
0.0
 10
-19.55030691554567
 20
-1.868108278814794
 30
0.0
 10
-19.50960090361446
 20
-1.761106927710827
 30
0.0
  0
SPLINE
  5
B1
330
1F
100
AcDbEntity
  8
0
  6
Continuous
 62
     7
370
    15
100
AcDbSpline
210
0.0
220
0.0
230
1.0
 70
     8
 71
     3
 72
    15
 73
    11
 74
     0
 42
0.000000001
 43
0.00000001
 40
0.0
 40
0.0
 40
0.0
 40
0.0
 40
0.1494659652212145
 40
0.2879733626985581
 40
0.4127950027441897
 40
0.5315997772866052
 40
0.6454521566844842
 40
0.7601726887992577
 40
0.8773772346516062
 40
1.0
 40
1.0
 40
1.0
 40
1.0
 10
10.8800828313253
 20
1.731927710843389
 30
0.0
 10
10.82445549198488
 20
1.730387107682946
 30
0.0
 10
10.717279306797
 20
1.727418855532431
 30
0.0
 10
10.56512757109142
 20
1.702680006278374
 30
0.0
 10
10.42905474749512
 20
1.659754067506024
 30
0.0
 10
10.30938225757984
 20
1.600631893183435
 30
0.0
 10
10.20426757466847
 20
1.523555670533729
 30
0.0
 10
10.12091243576171
 20
1.424852391564037
 30
0.0
 10
10.04665492393907
 20
1.314727041844318
 30
0.0
 10
10.01702976030891
 20
1.23016928897955
 30
0.0
 10
10.00188253012048
 20
1.186935240963872
 30
0.0
  0
SPLINE
  5
B2
330
1F
100
AcDbEntity
  8
0
  6
Continuous
 62
     7
370
    15
100
AcDbSpline
210
0.0
220
0.0
230
1.0
 70
     8
 71
     3
 72
    11
 73
     7
 74
     0
 42
0.000000001
 43
0.00000001
 40
0.0
 40
0.0
 40
0.0
 40
0.0
 40
0.3154885461362186
 40
0.5916756023066232
 40
0.8125774036583652
 40
1.0
 40
1.0
 40
1.0
 40
1.0
 10
10.00188253012048
 20
1.186935240963872
 30
0.0
 10
9.990995393280635
 20
1.138098679612841
 30
0.0
 10
9.970577367567817
 20
1.046509294813178
 30
0.0
 10
9.95026326294216
 20
0.9191423094746954
 30
0.0
 10
9.942844249865368
 20
0.8106296458798012
 30
0.0
 10
9.92911708898256
 20
0.747268342616219
 30
0.0
 10
9.922816265060234
 20
0.7181852409638718
 30
0.0
  0
SPLINE
  5
B3
330
1F
100
AcDbEntity
  8
0
  6
Continuous
 62
     7
370
    15
100
AcDbSpline
210
0.0
220
0.0
230
1.0
 70
     8
 71
     3
 72
    11
 73
     7
 74
     0
 42
0.000000001
 43
0.00000001
 40
0.0
 40
0.0
 40
0.0
 40
0.0
 40
0.2988729129743731
 40
0.5622908279448202
 40
0.7950023839327037
 40
1.0
 40
1.0
 40
1.0
 40
1.0
 10
9.922816265060234
 20
0.7181852409638718
 30
0.0
 10
9.90903118353453
 20
0.613493555460174
 30
0.0
 10
9.883096331067527
 20
0.4165296555370627
 30
0.0
 10
9.827283580811196
 20
0.1412213969295712
 30
0.0
 10
9.77232426495123
 20
-0.1003346514930337
 30
0.0
 10
9.728658394921258
 20
-0.2486740231892656
 30
0.0
 10
9.708207831325298
 20
-0.3181475903614294
 30
0.0
  0
SPLINE
  5
B4
330
1F
100
AcDbEntity
  8
0
  6
Continuous
 62
     7
370
    15
100
AcDbSpline
210
0.0
220
0.0
230
1.0
 70
     8
 71
     3
 72
    15
 73
    11
 74
     0
 42
0.000000001
 43
0.00000001
 40
0.0
 40
0.0
 40
0.0
 40
0.0
 40
0.1467085626324663
 40
0.2868398241908152
 40
0.4187033731336148
 40
0.5447270729519199
 40
0.6643998666044066
 40
0.7797156433765997
 40
0.8914529012826744
 40
1.0
 40
1.0
 40
1.0
 40
1.0
 10
9.708207831325296
 20
-0.3181475903614294
 30
0.0
 10
9.668436747936775
 20
-0.4485907535967306
 30
0.0
 10
9.590677615393021
 20
-0.7036289963409017
 30
0.0
 10
9.44964141341944
 20
-1.066727909017477
 30
0.0
 10
9.293049432328408
 20
-1.401983309151473
 30
0.0
 10
9.126086023583019
 20
-1.711082914658817
 30
0.0
 10
8.93715913286716
 20
-1.98887609117338
 30
0.0
 10
8.737419224443045
 20
-2.242054094904956
 30
0.0
 10
8.520118812882636
 20
-2.46696635035513
 30
0.0
 10
8.360731029433719
 20
-2.595659223858118
 30
0.0
 10
8.282191265060238
 20
-2.659073795180707
 30
0.0
  0
SPLINE
  5
B5
330
1F
100
AcDbEntity
  8
0
  6
Continuous
 62
     7
370
    15
100
AcDbSpline
210
0.0
220
0.0
230
1.0
 70
     8
 71
     3
 72
    15
 73
    11
 74
     0
 42
0.000000001
 43
0.00000001
 40
0.0
 40
0.0
 40
0.0
 40
0.0
 40
0.0575524406589906
 40
0.1322167454727931
 40
0.2263681780404497
 40
0.3400273460055817
 40
0.4750925670505627
 40
0.6288928083972747
 40
0.8042213423539072
 40
0.9999999999999999
 40
0.9999999999999999
 40
0.9999999999999999
 40
0.9999999999999999
 10
8.282191265060238
 20
-2.659073795180707
 30
0.0
 10
8.253610622857925
 20
-2.67813518900408
 30
0.0
 10
8.187951556930512
 20
-2.72192543363392
 30
0.0
 10
8.059310633769877
 20
-2.764983000285441
 30
0.0
 10
7.898971856018525
 20
-2.814042826116145
 30
0.0
 10
7.699569117555127
 20
-2.858161453025015
 30
0.0
 10
7.463668378841932
 20
-2.898396690338563
 30
0.0
 10
7.191168575584483
 20
-2.942948349173536
 30
0.0
 10
6.880799990814079
 20
-2.976874894890007
 30
0.0
 10
6.661336054576966
 20
-2.999900807096747
 30
0.0
 10
6.545557228915658
 20
-3.012048192771068
 30
0.0
  0
SPLINE
  5
B6
330
1F
100
AcDbEntity
  8
0
  6
Continuous
 62
     7
370
    15
100
AcDbSpline
210
0.0
220
0.0
230
1.0
 70
     8
 71
     3
 72
    15
 73
    11
 74
     0
 42
0.000000001
 43
0.00000001
 40
0.0
 40
0.0
 40
0.0
 40
0.0
 40
0.1820432092771746
 40
0.3423996960681234
 40
0.4811680144133908
 40
0.6025149781627919
 40
0.7114229838181523
 40
0.8086731882509078
 40
0.90266461537711
 40
1.0
 40
1.0
 40
1.0
 40
1.0
 10
6.545557228915658
 20
-3.012048192771068
 30
0.0
 10
6.452160126715305
 20
-3.023830334310198
 30
0.0
 10
6.276492275472616
 20
-3.045991016370507
 30
0.0
 10
6.032789223935632
 20
-3.097946933466907
 30
0.0
 10
5.826185924442663
 20
-3.167587023426309
 30
0.0
 10
5.655909038296111
 20
-3.255403581333138
 30
0.0
 10
5.520504359629133
 20
-3.358957603358185
 30
0.0
 10
5.421633990891062
 20
-3.481004406958116
 30
0.0
 10
5.3661028317218
 20
-3.62236535214229
 30
0.0
 10
5.35802511239469
 20
-3.721311397696585
 30
0.0
 10
5.353915662650598
 20
-3.771649096385526
 30
0.0
  0
SPLINE
  5
BA
330
1F
100
AcDbEntity
  8
0
  6
Continuous
 62
     7
370
    15
100
AcDbSpline
210
0.0
220
0.0
230
1.0
 70
     8
 71
     3
 72
    15
 73
    11
 74
     0
 42
0.000000001
 43
0.00000001
 40
0.0
 40
0.0
 40
0.0
 40
0.0
 40
0.1163698717394195
 40
0.220955595138293
 40
0.3240299655657964
 40
0.4302150361570595
 40
0.5491536525546084
 40
0.6774937953282386
 40
0.8293938214397439
 40
1.0
 40
1.0
 40
1.0
 40
1.0
 10
11.48437499999999
 20
1.322477409638572
 30
0.0
 10
11.48321847708999
 20
1.354719405780226
 30
0.0
 10
11.48102254609812
 20
1.415938425269035
 30
0.0
 10
11.45135763670667
 20
1.501925200804444
 30
0.0
 10
11.4014516072573
 20
1.573591993113722
 30
0.0
 10
11.3344916800043
 20
1.636187729809642
 30
0.0
 10
11.24558168316211
 20
1.679013075596977
 30
0.0
 10
11.13979749674989
 20
1.710476047060112
 30
0.0
 10
11.01632172349829
 20
1.729860640898018
 30
0.0
 10
10.92721853011382
 20
1.731212549520762
 30
0.0
 10
10.8800828313253
 20
1.731927710843389
 30
0.0
  0
SPLINE
  5
BB
330
1F
100
AcDbEntity
  8
0
  6
Continuous
 62
     7
370
    15
100
AcDbSpline
210
0.0
220
0.0
230
1.0
 70
     8
 71
     3
 72
    15
 73
    11
 74
     0
 42
0.000000001
 43
0.00000001
 40
0.0
 40
0.0
 40
0.0
 40
0.0
 40
0.0365448580982064
 40
0.0987550082667494
 40
0.1851118426559781
 40
0.2972084464663075
 40
0.4380902436451649
 40
0.6016728677744607
 40
0.787963490859479
 40
0.9999999999999999
 40
0.9999999999999999
 40
0.9999999999999999
 40
0.9999999999999999
 10
3.111822289156621
 20
8.10805722891568
 30
0.0
 10
3.122157262159458
 20
8.111869142131047
 30
0.0
 10
3.150085413955508
 20
8.122170058338849
 30
0.0
 10
3.203213347189341
 20
8.139554690709977
 30
0.0
 10
3.280556650756253
 20
8.15411037281394
 30
0.0
 10
3.37997343302141
 20
8.178160362351669
 30
0.0
 10
3.50261389217023
 20
8.205235371863859
 30
0.0
 10
3.646555396963485
 20
8.239439131387583
 30
0.0
 10
3.811197956261926
 20
8.279302532985938
 30
0.0
 10
3.927900031622639
 20
8.307601582786804
 30
0.0
 10
3.99002259036144
 20
8.322665662650618
 30
0.0
  0
SPLINE
  5
BC
330
1F
100
AcDbEntity
  8
0
  6
Continuous
 62
     7
370
    15
100
AcDbSpline
210
0.0
220
0.0
230
1.0
 70
     8
 71
     3
 72
    11
 73
     7
 74
     0
 42
0.000000001
 43
0.00000001
 40
0.0
 40
0.0
 40
0.0
 40
0.0
 40
0.313444769026386
 40
0.5692316151820651
 40
0.7862055160950412
 40
1.0
 40
1.0
 40
1.0
 40
1.0
 10
3.99002259036144
 20
8.322665662650618
 30
0.0
 10
4.060164993665091
 20
8.342810601309031
 30
0.0
 10
4.187547159426892
 20
8.379394832738036
 30
0.0
 10
4.34394121331732
 20
8.476204520553964
 30
0.0
 10
4.451534950169966
 20
8.601848822871943
 30
0.0
 10
4.467694982363805
 20
8.702117983377203
 30
0.0
 10
4.475715361445778
 20
8.751882530120499
 30
0.0
  0
SPLINE
  5
C0
330
1F
100
AcDbEntity
  8
0
  6
Continuous
 62
     7
370
    15
100
AcDbSpline
210
0.0
220
0.0
230
1.0
 70
     8
 71
     3
 72
    11
 73
     7
 74
     0
 42
0.000000001
 43
0.00000001
 40
0.0
 40
0.0
 40
0.0
 40
0.0
 40
0.2363999912248453
 40
0.4610198489821691
 40
0.7009906928144564
 40
0.9999999999999999
 40
0.9999999999999999
 40
0.9999999999999999
 40
0.9999999999999999
 10
-4.150978915662655
 20
8.79141566265062
 30
0.0
 10
-4.146677668507235
 20
8.734300640818306
 30
0.0
 10
-4.138289511199136
 20
8.622916716464848
 30
0.0
 10
-4.036860711051727
 20
8.48097208540983
 30
0.0
 10
-3.879245808465391
 20
8.382690901203278
 30
0.0
 10
-3.752527991676207
 20
8.356797227891601
 30
0.0
 10
-3.682228915662656
 20
8.34243222891568
 30
0.0
  0
SPLINE
  5
C1
330
1F
100
AcDbEntity
  8
0
  6
Continuous
 62
     7
370
    15
100
AcDbSpline
210
0.0
220
0.0
230
1.0
 70
     8
 71
     3
 72
    15
 73
    11
 74
     0
 42
0.000000001
 43
0.00000001
 40
0.0
 40
0.0
 40
0.0
 40
0.0
 40
0.2286513877670917
 40
0.4289017334074078
 40
0.5982524904743656
 40
0.7367444062530513
 40
0.8468111676173613
 40
0.928456334833085
 40
0.9793139423470597
 40
0.9999999999999999
 40
0.9999999999999999
 40
0.9999999999999999
 40
0.9999999999999999
 10
-3.682228915662656
 20
8.34243222891568
 30
0.0
 10
-3.613543324874309
 20
8.330037096671965
 30
0.0
 10
-3.484703656604982
 20
8.306786445289267
 30
0.0
 10
-3.304597988698414
 20
8.276691779498561
 30
0.0
 10
-3.151978826622278
 20
8.24890219880777
 30
0.0
 10
-3.027231353533655
 20
8.222495897349916
 30
0.0
 10
-2.928196623743362
 20
8.202954672380436
 30
0.0
 10
-2.855951090002921
 20
8.188483529681376
 30
0.0
 10
-2.809120501667599
 20
8.18079613697228
 30
0.0
 10
-2.789837511134885
 20
8.170371186553801
 30
0.0
 10
-2.784262048192776
 20
8.16735692771086
 30
0.0
  0
SPLINE
  5
C2
330
1F
100
AcDbEntity
  8
0
  6
Continuous
 62
     7
370
    15
100
AcDbSpline
210
0.0
220
0.0
230
1.0
 70
     8
 71
     3
 72
    11
 73
     7
 74
     0
 42
0.000000001
 43
0.00000001
 40
0.0
 40
0.0
 40
0.0
 40
0.0
 40
0.2404407183193213
 40
0.4709642321666662
 40
0.7189266668881309
 40
1.0
 40
1.0
 40
1.0
 40
1.0
 10
-2.784262048192776
 20
8.167356927710863
 30
0.0
 10
-2.711997833277089
 20
8.127627268807991
 30
0.0
 10
-2.570450009228026
 20
8.049806638299879
 30
0.0
 10
-2.416784462202648
 20
7.851775226506697
 30
0.0
 10
-2.328130594120507
 20
7.605025230195722
 30
0.0
 10
-2.319890145857392
 20
7.424566390770372
 30
0.0
 10
-2.315512048192776
 20
7.328689759036162
 30
0.0
  0
SPLINE
  5
C4
330
1F
100
AcDbEntity
  8
0
  6
Continuous
 62
     7
370
    15
100
AcDbSpline
210
0.0
220
0.0
230
1.0
 70
     8
 71
     3
 72
    15
 73
    11
 74
     0
 42
0.000000001
 43
0.00000001
 40
0.0
 40
0.0
 40
0.0
 40
0.0
 40
0.0808127908962497
 40
0.1656837364880011
 40
0.2615433205351478
 40
0.3711585799347508
 40
0.4991903621582672
 40
0.6453842659478357
 40
0.8121848391593164
 40
0.9999999999999999
 40
0.9999999999999999
 40
0.9999999999999999
 40
0.9999999999999999
 10
-2.315512048192776
 20
-2.563064759036128
 30
0.0
 10
-2.318546618778259
 20
-2.593581674293586
 30
0.0
 10
-2.324768146183306
 20
-2.656147964726921
 30
0.0
 10
-2.367867252695364
 20
-2.747021800917484
 30
0.0
 10
-2.438352182899626
 20
-2.831585345202912
 30
0.0
 10
-2.533651284183946
 20
-2.914540790828566
 30
0.0
 10
-2.656479951788385
 20
-2.991855659859167
 30
0.0
 10
-2.804067868765117
 20
-3.069154815483477
 30
0.0
 10
-2.980529874697934
 20
-3.13737530142998
 30
0.0
 10
-3.106976072716304
 20
-3.180974707815299
 30
0.0
 10
-3.173945783132536
 20
-3.204066265060226
 30
0.0
  0
SPLINE
  5
C5
330
1F
100
AcDbEntity
  8
0
  6
Continuous
 62
     7
370
    15
100
AcDbSpline
210
0.0
220
0.0
230
1.0
 70
     8
 71
     3
 72
    15
 73
    11
 74
     0
 42
0.000000001
 43
0.00000001
 40
0.0
 40
0.0
 40
0.0
 40
0.0
 40
0.166133945420795
 40
0.3164001977781256
 40
0.4525197947317633
 40
0.5754489584999843
 40
0.6861247077534333
 40
0.7915530178960599
 40
0.8940989147946984
 40
1.0
 40
1.0
 40
1.0
 40
1.0
 10
-3.173945783132536
 20
-3.204066265060226
 30
0.0
 10
-3.241212192793566
 20
-3.223450060469493
 30
0.0
 10
-3.369320300180451
 20
-3.260366276993755
 30
0.0
 10
-3.545747799416036
 20
-3.333769626946679
 30
0.0
 10
-3.696231563202927
 20
-3.418563502801567
 30
0.0
 10
-3.822290470405887
 20
-3.510798910957885
 30
0.0
 10
-3.921901892664124
 20
-3.614516586434934
 30
0.0
 10
-3.992947915113192
 20
-3.729101434189971
 30
0.0
 10
-4.041974979373085
 20
-3.853586091453372
 30
0.0
 10
-4.048719528982097
 20
-3.941561695179091
 30
0.0
 10
-4.052146084337355
 20
-3.986257530120469
 30
0.0
  0
SPLINE
  5
C9
330
1F
100
AcDbEntity
  8
0
  6
Continuous
 62
     7
370
    15
100
AcDbSpline
210
0.0
220
0.0
230
1.0
 70
     8
 71
     3
 72
    11
 73
     7
 74
     0
 42
0.000000001
 43
0.00000001
 40
0.0
 40
0.0
 40
0.0
 40
0.0
 40
0.2716648761376358
 40
0.5171772901412507
 40
0.7512939866830689
 40
1.0
 40
1.0
 40
1.0
 40
1.0
 10
2.643072289156622
 20
7.229856927710859
 30
0.0
 10
2.647120539045307
 20
7.324982125760501
 30
0.0
 10
2.654827324467889
 20
7.506075069577569
 30
0.0
 10
2.750750418431576
 20
7.753371716217697
 30
0.0
 10
2.898603973347143
 20
7.964923664588246
 30
0.0
 10
3.039332070234089
 20
8.05939450792069
 30
0.0
 10
3.111822289156621
 20
8.10805722891568
 30
0.0
  0
SPLINE
  5
CA
330
1F
100
AcDbEntity
  8
0
  6
Continuous
 62
     7
370
    15
100
AcDbSpline
210
0.0
220
0.0
230
1.0
 70
     8
 71
     3
 72
    15
 73
    11
 74
     0
 42
0.000000001
 43
0.00000001
 40
0.0
 40
0.0
 40
0.0
 40
0.0
 40
0.107813762214114
 40
0.2079163273865701
 40
0.3058420746382319
 40
0.4097989893666964
 40
0.5291008115509057
 40
0.6658577361089243
 40
0.8210578321987246
 40
1.0
 40
1.0
 40
1.0
 40
1.0
 10
22.80214608433734
 20
9.971762048192788
 30
0.0
 10
22.76512006357385
 20
9.969996841296082
 30
0.0
 10
22.69371624557522
 20
9.966592680941194
 30
0.0
 10
22.59387957996725
 20
9.928763828379868
 30
0.0
 10
22.51225102452991
 20
9.863141693779433
 30
0.0
 10
22.44613380167467
 20
9.774291213886245
 30
0.0
 10
22.39212538564678
 20
9.66268017539874
 30
0.0
 10
22.3570610439448
 20
9.525568969489504
 30
0.0
 10
22.33896853828941
 20
9.365135140131073
 30
0.0
 10
22.33533952079451
 20
9.25080021183755
 30
0.0
 10
22.33339608433735
 20
9.189570783132547
 30
0.0
  0
SPLINE
  5
CB
330
1F
100
AcDbEntity
  8
0
  6
Continuous
 62
     7
370
    15
100
AcDbSpline
210
0.0
220
0.0
230
1.0
 70
     8
 71
     3
 72
    15
 73
    11
 74
     0
 42
0.000000001
 43
0.00000001
 40
0.0
 40
0.0
 40
0.0
 40
0.0
 40
0.1907601875094427
 40
0.3584359068384806
 40
0.5037726837512376
 40
0.6252622871166617
 40
0.7291727379195124
 40
0.8213450074851645
 40
0.9098734169256221
 40
0.9999999999999999
 40
0.9999999999999999
 40
0.9999999999999999
 40
0.9999999999999999
 10
22.33339608433735
 20
9.189570783132547
 30
0.0
 10
22.33366023035305
 20
9.115099990960083
 30
0.0
 10
22.33415655727489
 20
8.975170342778139
 30
0.0
 10
22.35894616823506
 20
8.780152931025988
 30
0.0
 10
22.38801190356086
 20
8.612647135821398
 30
0.0
 10
22.44050125911653
 20
8.477176559983896
 30
0.0
 10
22.50174776121668
 20
8.368765429305483
 30
0.0
 10
22.5796884198226
 20
8.287567423083543
 30
0.0
 10
22.6770547053636
 20
8.239541980057217
 30
0.0
 10
22.74706249360149
 20
8.234731149829544
 30
0.0
 10
22.78237951807229
 20
8.232304216867487
 30
0.0
  0
SPLINE
  5
CC
330
1F
100
AcDbEntity
  8
0
  6
Continuous
 62
     7
370
    15
100
AcDbSpline
210
0.0
220
0.0
230
1.0
 70
     8
 71
     3
 72
    15
 73
    11
 74
     0
 42
0.000000001
 43
0.00000001
 40
0.0
 40
0.0
 40
0.0
 40
0.0
 40
0.1095338639955378
 40
0.2183119188954517
 40
0.3293310927546796
 40
0.4465018332829305
 40
0.5694645499581732
 40
0.7024646764677285
 40
0.8454702915761263
 40
1.0
 40
1.0
 40
1.0
 40
1.0
 10
22.78237951807229
 20
8.232304216867487
 30
0.0
 10
22.88664725265579
 20
8.183586535940107
 30
0.0
 10
23.09446325024292
 20
8.086487337396118
 30
0.0
 10
23.37794091133034
 20
7.885143674854349
 30
0.0
 10
23.62866529346981
 20
7.634163899502329
 30
0.0
 10
23.85181238768372
 20
7.339553436432608
 30
0.0
 10
24.04435811937352
 20
6.997603077122538
 30
0.0
 10
24.21067101558305
 20
6.612738905060482
 30
0.0
 10
24.34597066268395
 20
6.180807292689124
 30
0.0
 10
24.40968172799257
 20
5.875084639371625
 30
0.0
 10
24.44277108433734
 20
5.71630271084339
 30
0.0
  0
SPLINE
  5
CD
330
1F
100
AcDbEntity
  8
0
  6
Continuous
 62
     7
370
    15
100
AcDbSpline
210
0.0
220
0.0
230
1.0
 70
     8
 71
     3
 72
    15
 73
    11
 74
     0
 42
0.000000001
 43
0.00000001
 40
0.0
 40
0.0
 40
0.0
 40
0.0
 40
0.0777535507604992
 40
0.1691207776059166
 40
0.2742496458257491
 40
0.3914837112024686
 40
0.5234739155418352
 40
0.6686011599784669
 40
0.8277180488243766
 40
1.0
 40
1.0
 40
1.0
 40
1.0
 10
24.44277108433734
 20
5.71630271084339
 30
0.0
 10
24.45862755600077
 20
5.634545704068465
 30
0.0
 10
24.49311676956821
 20
5.45671705926358
 30
0.0
 10
24.53071937819412
 20
5.165284245124882
 30
0.0
 10
24.5637838923596
 20
4.830963110852944
 30
0.0
 10
24.59301911228898
 20
4.452548563182471
 30
0.0
 10
24.60987039786566
 20
4.0305512562099
 30
0.0
 10
24.62896917001693
 20
3.563781464092836
 30
0.0
 10
24.63579700573688
 20
3.05348248917749
 30
0.0
 10
24.63699181489334
 20
2.698606055982464
 30
0.0
 10
24.63761295180723
 20
2.514118975903632
 30
0.0
  0
SPLINE
  5
CE
330
1F
100
AcDbEntity
  8
0
  6
Continuous
 62
     7
370
    15
100
AcDbSpline
210
0.0
220
0.0
230
1.0
 70
     8
 71
     3
 72
    15
 73
    11
 74
     0
 42
0.000000001
 43
0.00000001
 40
0.0
 40
0.0
 40
0.0
 40
0.0
 40
0.1866423830877623
 40
0.3561116224812058
 40
0.507187037725011
 40
0.6405371837528068
 40
0.7568624194294656
 40
0.8550704776220523
 40
0.9360308640666108
 40
1.0
 40
1.0
 40
1.0
 40
1.0
 10
24.63761295180723
 20
2.514118975903632
 30
0.0
 10
24.6363299116208
 20
2.238324096392609
 30
0.0
 10
24.63388188499932
 20
1.712110487297742
 30
0.0
 10
24.6210705733859
 20
0.9627236460829809
 30
0.0
 10
24.5956255291995
 20
0.2924394398445586
 30
0.0
 10
24.56217455981469
 20
-0.2987947604644828
 30
0.0
 10
24.52235733860996
 20
-0.8114628204511365
 30
0.0
 10
24.46935683180408
 20
-1.244883621300293
 30
0.0
 10
24.40891973026994
 20
-1.59963393974372
 30
0.0
 10
24.35012330922284
 20
-1.805696846700993
 30
0.0
 10
24.32417168674698
 20
-1.896649096385525
 30
0.0
  0
SPLINE
  5
CF
330
1F
100
AcDbEntity
  8
0
  6
Continuous
 62
     7
370
    15
100
AcDbSpline
210
0.0
220
0.0
230
1.0
 70
     8
 71
     3
 72
    15
 73
    11
 74
     0
 42
0.000000001
 43
0.00000001
 40
0.0
 40
0.0
 40
0.0
 40
0.0
 40
0.1410602305091848
 40
0.273736677206747
 40
0.3992969985540672
 40
0.5200053389085825
 40
0.6379140340494565
 40
0.7555364123127045
 40
0.8759169599833476
 40
1.0
 40
1.0
 40
1.0
 40
1.0
 10
24.32417168674698
 20
-1.896649096385525
 30
0.0
 10
24.27957076946305
 20
-2.018148690501306
 30
0.0
 10
24.19301974899748
 20
-2.253926663181261
 30
0.0
 10
24.02619083773017
 20
-2.58108315194811
 30
0.0
 10
23.82984252099693
 20
-2.868870726203555
 30
0.0
 10
23.60819477581108
 20
-3.119724753553564
 30
0.0
 10
23.36097876332042
 20
-3.335213845385401
 30
0.0
 10
23.0828156710014
 20
-3.507851556538478
 30
0.0
 10
22.77946141056498
 20
-3.646428685563436
 30
0.0
 10
22.56224738731166
 20
-3.703266593973877
 30
0.0
 10
22.45199548192771
 20
-3.732115963855406
 30
0.0
  0
SPLINE
  5
D0
330
1F
100
AcDbEntity
  8
0
  6
Continuous
 62
     7
370
    15
100
AcDbSpline
210
0.0
220
0.0
230
1.0
 70
     8
 71
     3
 72
    11
 73
     7
 74
     0
 42
0.000000001
 43
0.00000001
 40
0.0
 40
0.0
 40
0.0
 40
0.0
 40
0.2146384591712944
 40
0.4345974432671934
 40
0.6870313172676563
 40
1.0
 40
1.0
 40
1.0
 40
1.0
 10
22.45199548192771
 20
-3.732115963855406
 30
0.0
 10
22.39696739290432
 20
-3.756011573881387
 30
0.0
 10
22.28554716146128
 20
-3.804395125751342
 30
0.0
 10
22.17276520032863
 20
-3.965311468892931
 30
0.0
 10
22.10873313509117
 20
-4.173322575402434
 30
0.0
 10
22.10248154341716
 20
-4.329194322143508
 30
0.0
 10
22.09902108433734
 20
-4.415474397590345
 30
0.0
  0
SPLINE
  5
D1
330
1F
100
AcDbEntity
  8
0
  6
Continuous
 62
     7
370
    15
100
AcDbSpline
210
0.0
220
0.0
230
1.0
 70
     8
 71
     3
 72
    15
 73
    11
 74
     0
 42
0.000000001
 43
0.00000001
 40
0.0
 40
0.0
 40
0.0
 40
0.0
 40
0.1698480791030628
 40
0.3186347143050328
 40
0.4533804607841769
 40
0.5680611996695871
 40
0.6748453509421961
 40
0.7752474363989162
 40
0.8825628553850464
 40
0.9999999999999999
 40
0.9999999999999999
 40
0.9999999999999999
 40
0.9999999999999999
 10
22.09902108433734
 20
-4.415474397590345
 30
0.0
 10
22.10003015859837
 20
-4.457866576050352
 30
0.0
 10
22.10192318023614
 20
-4.537394232434239
 30
0.0
 10
22.11773863488029
 20
-4.650023347131556
 30
0.0
 10
22.14888385383196
 20
-4.744672718105122
 30
0.0
 10
22.18760754761385
 20
-4.82562140005726
 30
0.0
 10
22.24287042437641
 20
-4.885263184092156
 30
0.0
 10
22.3076817321265
 20
-4.93084633598704
 30
0.0
 10
22.38624506580064
 20
-4.956111214765975
 30
0.0
 10
22.44241321043673
 20
-4.958972037543079
 30
0.0
 10
22.47176204819277
 20
-4.960466867469863
 30
0.0
  0
SPLINE
  5
D2
330
1F
100
AcDbEntity
  8
0
  6
Continuous
 62
     7
370
    15
100
AcDbSpline
210
0.0
220
0.0
230
1.0
 70
     8
 71
     3
 72
    23
 73
    19
 74
     0
 42
0.000000001
 43
0.00000001
 40
0.0
 40
0.0
 40
0.0
 40
0.0
 40
0.0636033251035109
 40
0.1255287987795176
 40
0.1860979018306301
 40
0.2459976462421893
 40
0.3059139646686767
 40
0.3665813467096136
 40
0.4282521813268961
 40
0.4917991869943485
 40
0.5557087925642518
 40
0.618115844811909
 40
0.679918755305296
 40
0.7414953557873606
 40
0.803711191164476
 40
0.8671454079520422
 40
0.9322306069572128
 40
0.9999999999999999
 40
0.9999999999999999
 40
0.9999999999999999
 40
0.9999999999999999
 10
22.47176204819277
 20
-4.960466867469863
 30
0.0
 10
22.71590128586579
 20
-4.953962647443782
 30
0.0
 10
23.19773938458415
 20
-4.94112578827733
 30
0.0
 10
23.9059790906348
 20
-4.839096719560454
 30
0.0
 10
24.58807940863646
 20
-4.67731311629211
 30
0.0
 10
25.24016906525804
 20
-4.441781838864421
 30
0.0
 10
25.86940021450602
 20
-4.149550772732578
 30
0.0
 10
26.46522595198122
 20
-3.780841515962543
 30
0.0
 10
27.03703267601448
 20
-3.352894516842869
 30
0.0
 10
27.57185417770381
 20
-2.860607898086842
 30
0.0
 10
28.06223089774851
 20
-2.320645232018706
 30
0.0
 10
28.49642450284345
 20
-1.74230639148457
 30
0.0
 10
28.85784527759373
 20
-1.126226335044425
 30
0.0
 10
29.15658180753656
 20
-0.4785842597379124
 30
0.0
 10
29.38970952225499
 20
0.2024698605064268
 30
0.0
 10
29.55135359085046
 20
0.9172933780050956
 30
0.0
 10
29.65355051341509
 20
1.664974383816166
 30
0.0
 10
29.66605910265453
 20
2.174925583997442
 30
0.0
 10
29.67243975903614
 20
2.435052710843391
 30
0.0
  0
SPLINE
  5
D3
330
1F
100
AcDbEntity
  8
0
  6
Continuous
 62
     7
370
    15
100
AcDbSpline
210
0.0
220
0.0
230
1.0
 70
     8
 71
     3
 72
    15
 73
    11
 74
     0
 42
0.000000001
 43
0.00000001
 40
0.0
 40
0.0
 40
0.0
 40
0.0
 40
0.1296078945617589
 40
0.2558227324696561
 40
0.3796071038211556
 40
0.5016932480066468
 40
0.6239719207672175
 40
0.7466424148580932
 40
0.871889035556355
 40
1.0
 40
1.0
 40
1.0
 40
1.0
 10
29.67243975903614
 20
2.435052710843391
 30
0.0
 10
29.66693564683137
 20
2.686703897499334
 30
0.0
 10
29.65607151676581
 20
3.183418194242102
 30
0.0
 10
29.55583897435833
 20
3.914693995614615
 30
0.0
 10
29.40020244316587
 20
4.620788894469527
 30
0.0
 10
29.17381287141545
 20
5.299675240142579
 30
0.0
 10
28.88928969602434
 20
5.953863936406386
 30
0.0
 10
28.53778789915376
 20
6.581472391604636
 30
0.0
 10
28.12742464448996
 20
7.186801730990876
 30
0.0
 10
27.80511021022986
 20
7.558607054477817
 30
0.0
 10
27.64213102409638
 20
7.746611445783149
 30
0.0
  0
SPLINE
  5
D4
330
1F
100
AcDbEntity
  8
0
  6
Continuous
 62
     7
370
    15
100
AcDbSpline
210
0.0
220
0.0
230
1.0
 70
     8
 71
     3
 72
    15
 73
    11
 74
     0
 42
0.000000001
 43
0.00000001
 40
0.0
 40
0.0
 40
0.0
 40
0.0
 40
0.1341472007390959
 40
0.2630367893505307
 40
0.3875208605717258
 40
0.5096414920037656
 40
0.630605153607834
 40
0.7515862951941633
 40
0.8744019031346105
 40
1.0
 40
1.0
 40
1.0
 40
1.0
 10
27.64213102409638
 20
7.746611445783149
 30
0.0
 10
27.4723902559258
 20
7.924361154326752
 30
0.0
 10
27.13956134532993
 20
8.27289405240963
 30
0.0
 10
26.59055891060528
 20
8.724931618960762
 30
0.0
 10
26.01989502409118
 20
9.10996646943098
 30
0.0
 10
25.42427488856513
 20
9.426292704641599
 30
0.0
 10
24.80216987812853
 20
9.669498427371172
 30
0.0
 10
24.15698069313645
 20
9.845822617495136
 30
0.0
 10
23.48724122064816
 20
9.953383532362738
 30
0.0
 10
23.0322100687033
 20
9.965590300132565
 30
0.0
 10
22.80214608433734
 20
9.971762048192788
 30
0.0
  0
SPLINE
  5
D5
330
1F
100
AcDbEntity
  8
0
  6
Continuous
 62
     7
370
    15
100
AcDbSpline
210
0.0
220
0.0
230
1.0
 70
     8
 71
     3
 72
    15
 73
    11
 74
     0
 42
0.000000001
 43
0.00000001
 40
0.0
 40
0.0
 40
0.0
 40
0.0
 40
0.1295892299519008
 40
0.2547985856649597
 40
0.376990765061681
 40
0.4983865004004854
 40
0.6198735221805682
 40
0.7429621084614582
 40
0.8682894610019413
 40
1.0
 40
1.0
 40
1.0
 40
1.0
 10
20.44145331325301
 20
-3.72929216867468
 30
0.0
 10
20.35429495476894
 20
-3.707610179914177
 30
0.0
 10
20.18292402773386
 20
-3.664979013168063
 30
0.0
 10
19.93901312649854
 20
-3.57016414560174
 30
0.0
 10
19.71062744875544
 20
-3.454751518902135
 30
0.0
 10
19.50110398532555
 20
-3.312118725748162
 30
0.0
 10
19.30793623131708
 20
-3.147375264102012
 30
0.0
 10
19.13202441222291
 20
-2.960452130878219
 30
0.0
 10
18.97475305742896
 20
-2.748497062791594
 30
0.0
 10
18.88589421251933
 20
-2.594150179880088
 30
0.0
 10
18.84036144578313
 20
-2.515060240963839
 30
0.0
  0
SPLINE
  5
D6
330
1F
100
AcDbEntity
  8
0
  6
Continuous
 62
     7
370
    15
100
AcDbSpline
210
0.0
220
0.0
230
1.0
 70
     8
 71
     3
 72
    15
 73
    11
 74
     0
 42
0.000000001
 43
0.00000001
 40
0.0
 40
0.0
 40
0.0
 40
0.0
 40
0.0808058735317827
 40
0.1727280753216468
 40
0.2770860483429656
 40
0.3947905342382458
 40
0.5252651574495711
 40
0.6695702833243737
 40
0.8280247919077662
 40
1.0
 40
1.0
 40
1.0
 40
1.0
 10
18.84036144578313
 20
-2.515060240963839
 30
0.0
 10
18.79403552174144
 20
-2.419932112562266
 30
0.0
 10
18.69501069412082
 20
-2.216589238961732
 30
0.0
 10
18.58203764688604
 20
-1.871021083403789
 30
0.0
 10
18.48873464847379
 20
-1.470854166878515
 30
0.0
 10
18.40667458522395
 20
-1.016771129852026
 30
0.0
 10
18.34569786680534
 20
-0.506651444632104
 30
0.0
 10
18.30634972607286
 20
0.0588275525700427
 30
0.0
 10
18.27602287478154
 20
0.6792711875504877
 30
0.0
 10
18.2738891376967
 20
1.111591350487794
 30
0.0
 10
18.27277861445783
 20
1.336596385542186
 30
0.0
  0
SPLINE
  5
D8
330
1F
100
AcDbEntity
  8
0
  6
Continuous
 62
     7
370
    15
100
AcDbSpline
210
0.0
220
0.0
230
1.0
 70
     8
 71
     3
 72
    15
 73
    11
 74
     0
 42
0.000000001
 43
0.00000001
 40
0.0
 40
0.0
 40
0.0
 40
0.0
 40
0.1635805692988208
 40
0.3157543850857645
 40
0.457488735497102
 40
0.5869828918504152
 40
0.7061548395599652
 40
0.8153282921243005
 40
0.9125251391058112
 40
1.0
 40
1.0
 40
1.0
 40
1.0
 10
18.27277861445783
 20
3.564570783132546
 30
0.0
 10
18.27269209000289
 20
3.725545632263767
 30
0.0
 10
18.27252507459157
 20
4.036270278348423
 30
0.0
 10
18.28892839682719
 20
4.486171551111736
 30
0.0
 10
18.30635946809719
 20
4.902472820587299
 30
0.0
 10
18.33626605044228
 20
5.285467323538696
 30
0.0
 10
18.36722897323966
 20
5.636324983423957
 30
0.0
 10
18.4138077493002
 20
5.95331417183147
 30
0.0
 10
18.4623168858616
 20
6.238526172016259
 30
0.0
 10
18.50615503105798
 20
6.414933681225643
 30
0.0
 10
18.52692018072289
 20
6.498493975903632
 30
0.0
  0
SPLINE
  5
D9
330
1F
100
AcDbEntity
  8
0
  6
Continuous
 62
     7
370
    15
100
AcDbSpline
210
0.0
220
0.0
230
1.0
 70
     8
 71
     3
 72
    11
 73
     7
 74
     0
 42
0.000000001
 43
0.00000001
 40
0.0
 40
0.0
 40
0.0
 40
0.0
 40
0.2877284890360818
 40
0.5490419627911999
 40
0.7829773360091027
 40
1.0
 40
1.0
 40
1.0
 40
1.0
 10
18.52692018072289
 20
6.498493975903632
 30
0.0
 10
18.57263576403896
 20
6.634431202135247
 30
0.0
 10
18.65986999544262
 20
6.893825889663869
 30
0.0
 10
18.83459280571214
 20
7.242926099802911
 30
0.0
 10
19.02095162782976
 20
7.546627308652941
 30
0.0
 10
19.17545655580985
 20
7.710233309154952
 30
0.0
 10
19.24981174698795
 20
7.788968373493994
 30
0.0
  0
SPLINE
  5
DA
330
1F
100
AcDbEntity
  8
0
  6
Continuous
 62
     7
370
    15
100
AcDbSpline
210
0.0
220
0.0
230
1.0
 70
     8
 71
     3
 72
    11
 73
     7
 74
     0
 42
0.000000001
 43
0.00000001
 40
0.0
 40
0.0
 40
0.0
 40
0.0
 40
0.2173262904271351
 40
0.4559238907679911
 40
0.7153467916168504
 40
1.0
 40
1.0
 40
1.0
 40
1.0
 10
19.24981174698795
 20
7.788968373493993
 30
0.0
 10
19.29574385109256
 20
7.830889630550669
 30
0.0
 10
19.39210376950546
 20
7.918835283999226
 30
0.0
 10
19.56672581803708
 20
8.026849312932807
 30
0.0
 10
19.76881210286581
 20
8.12322047631241
 30
0.0
 10
19.91564756570502
 20
8.17444335668146
 30
0.0
 10
19.99246987951807
 20
8.201242469879535
 30
0.0
  0
SPLINE
  5
DB
330
1F
100
AcDbEntity
  8
0
  6
Continuous
 62
     7
370
    15
100
AcDbSpline
210
0.0
220
0.0
230
1.0
 70
     8
 71
     3
 72
    11
 73
     7
 74
     0
 42
0.000000001
 43
0.00000001
 40
0.0
 40
0.0
 40
0.0
 40
0.0
 40
0.3409177681171558
 40
0.6191194472502818
 40
0.8403775523255541
 40
1.0
 40
1.0
 40
1.0
 40
1.0
 10
19.99246987951807
 20
8.201242469879535
 30
0.0
 10
20.05780915294247
 20
8.22287981813893
 30
0.0
 10
20.17646772292451
 20
8.262174053720441
 30
0.0
 10
20.33226766904752
 20
8.328309900871847
 30
0.0
 10
20.45358861398201
 20
8.385152848107447
 30
0.0
 10
20.51269258691315
 20
8.43464321855658
 30
0.0
 10
20.53746234939759
 20
8.455384036144595
 30
0.0
  0
SPLINE
  5
DC
330
1F
100
AcDbEntity
  8
0
  6
Continuous
 62
     7
370
    15
100
AcDbSpline
210
0.0
220
0.0
230
1.0
 70
     8
 71
     3
 72
    11
 73
     7
 74
     0
 42
0.000000001
 43
0.00000001
 40
0.0
 40
0.0
 40
0.0
 40
0.0
 40
0.2213091543943615
 40
0.4551765889340539
 40
0.7141395807025126
 40
1.0
 40
1.0
 40
1.0
 40
1.0
 10
20.53746234939759
 20
8.455384036144597
 30
0.0
 10
20.55828050124314
 20
8.49061062077033
 30
0.0
 10
20.60109813963184
 20
8.563062737238887
 30
0.0
 10
20.64733820193691
 20
8.687516310185831
 30
0.0
 10
20.67130197534501
 20
8.830015179092209
 30
0.0
 10
20.67427067988521
 20
8.930638325784631
 30
0.0
 10
20.67582831325301
 20
8.983433734939776
 30
0.0
  0
SPLINE
  5
DD
330
1F
100
AcDbEntity
  8
0
  6
Continuous
 62
     7
370
    15
100
AcDbSpline
210
0.0
220
0.0
230
1.0
 70
     8
 71
     3
 72
     9
 73
     5
 74
     0
 42
0.000000001
 43
0.00000001
 40
0.0
 40
0.0
 40
0.0
 40
0.0
 40
0.5137083056009635
 40
1.0
 40
1.0
 40
1.0
 40
1.0
 10
20.67582831325301
 20
8.983433734939776
 30
0.0
 10
20.67108166127501
 20
9.097814649824967
 30
0.0
 10
20.6618416861252
 20
9.320471970405725
 30
0.0
 10
20.57815734798598
 20
9.526883044957895
 30
0.0
 10
20.53746234939759
 20
9.627259036144597
 30
0.0
  0
SPLINE
  5
DE
330
1F
100
AcDbEntity
  8
0
  6
Continuous
 62
     7
370
    15
100
AcDbSpline
210
0.0
220
0.0
230
1.0
 70
     8
 71
     3
 72
    11
 73
     7
 74
     0
 42
0.000000001
 43
0.00000001
 40
0.0
 40
0.0
 40
0.0
 40
0.0
 40
0.2910065088326858
 40
0.5375381950902899
 40
0.7622796440759345
 40
1.0
 40
1.0
 40
1.0
 40
1.0
 10
20.53746234939759
 20
9.627259036144595
 30
0.0
 10
20.51420141504046
 20
9.683669394681345
 30
0.0
 10
20.47123453873037
 20
9.78786885892657
 30
0.0
 10
20.36538466627024
 20
9.909258583343734
 30
0.0
 10
20.23604100685693
 20
9.989651151731374
 30
0.0
 10
20.13857803957896
 20
9.996486440198812
 30
0.0
 10
20.08847891566264
 20
10.00000000000002
 30
0.0
  0
SPLINE
  5
DF
330
1F
100
AcDbEntity
  8
0
  6
Continuous
 62
     7
370
    15
100
AcDbSpline
210
0.0
220
0.0
230
1.0
 70
     8
 71
     3
 72
    15
 73
    11
 74
     0
 42
0.000000001
 43
0.00000001
 40
0.0
 40
0.0
 40
0.0
 40
0.0
 40
0.1265020960906257
 40
0.2497058383760715
 40
0.3710649960883329
 40
0.491433200764477
 40
0.6136760533352259
 40
0.7380391852184782
 40
0.866344832882553
 40
1.0
 40
1.0
 40
1.0
 40
1.0
 10
20.08847891566264
 20
10.00000000000002
 30
0.0
 10
19.85652830300242
 20
9.993880932679645
 30
0.0
 10
19.39867484455323
 20
9.981802343608525
 30
0.0
 10
18.72523850656421
 20
9.873943399558371
 30
0.0
 10
18.07878030002756
 20
9.698644829759631
 30
0.0
 10
17.45634018930888
 20
9.45445219744383
 30
0.0
 10
16.86334139818266
 20
9.134518946677487
 30
0.0
 10
16.29097991610064
 20
8.752476079688337
 30
0.0
 10
15.7491275863693
 20
8.294058264201405
 30
0.0
 10
15.41762836868072
 20
7.946519662621442
 30
0.0
 10
15.24849397590361
 20
7.769201807228933
 30
0.0
  0
SPLINE
  5
E0
330
1F
100
AcDbEntity
  8
0
  6
Continuous
 62
     7
370
    15
100
AcDbSpline
210
0.0
220
0.0
230
1.0
 70
     8
 71
     3
 72
    15
 73
    11
 74
     0
 42
0.000000001
 43
0.00000001
 40
0.0
 40
0.0
 40
0.0
 40
0.0
 40
0.1283739419916123
 40
0.2531137851931954
 40
0.3761027769808295
 40
0.4982766256402622
 40
0.6207183165693777
 40
0.7443965730508928
 40
0.8705032125572595
 40
1.0
 40
1.0
 40
1.0
 40
1.0
 10
15.24849397590361
 20
7.769201807228933
 30
0.0
 10
15.08581167596457
 20
7.580041819155443
 30
0.0
 10
14.76505239972302
 20
7.207076715446864
 30
0.0
 10
14.35096905066048
 20
6.603356784585647
 30
0.0
 10
14.00235092599188
 20
5.973999212962426
 30
0.0
 10
13.71600932489855
 20
5.318810223091702
 30
0.0
 10
13.49099844939958
 20
4.638468697740233
 30
0.0
 10
13.33468123697245
 20
3.931674236887133
 30
0.0
 10
13.23458072156788
 20
3.200351225480548
 30
0.0
 10
13.22369851254214
 20
2.703643393387484
 30
0.0
 10
13.21818524096385
 20
2.451995481927727
 30
0.0
  0
SPLINE
  5
E1
330
1F
100
AcDbEntity
  8
0
  6
Continuous
 62
     7
370
    15
100
AcDbSpline
210
0.0
220
0.0
230
1.0
 70
     8
 71
     3
 72
    15
 73
    11
 74
     0
 42
0.000000001
 43
0.00000001
 40
0.0
 40
0.0
 40
0.0
 40
0.0
 40
0.1322119060529522
 40
0.2605153572430902
 40
0.3850339088071373
 40
0.5078916327800652
 40
0.6292039395418938
 40
0.7506131665460258
 40
0.8742603791586496
 40
1.0
 40
1.0
 40
1.0
 40
1.0
 10
13.21818524096385
 20
2.451995481927727
 30
0.0
 10
13.22378082865263
 20
2.196607895747074
 30
0.0
 10
13.23480658699199
 20
1.693382503756609
 30
0.0
 10
13.33301796332942
 20
0.9548768405312734
 30
0.0
 10
13.49388350048849
 20
0.246539676738794
 30
0.0
 10
13.72009453153081
 20
-0.4297733555636719
 30
0.0
 10
14.00988305411164
 20
-1.074760290795673
 30
0.0
 10
14.36275782795209
 20
-1.689041194430266
 30
0.0
 10
14.7796395060953
 20
-2.273314694704712
 30
0.0
 10
15.10447837456232
 20
-2.62926602245651
 30
0.0
 10
15.26826054216867
 20
-2.808734939759019
 30
0.0
  0
SPLINE
  5
E2
330
1F
100
AcDbEntity
  8
0
  6
Continuous
 62
     7
370
    15
100
AcDbSpline
210
0.0
220
0.0
230
1.0
 70
     8
 71
     3
 72
    15
 73
    11
 74
     0
 42
0.000000001
 43
0.00000001
 40
0.0
 40
0.0
 40
0.0
 40
0.0
 40
0.1280771713273769
 40
0.2521899306026502
 40
0.3746123189452801
 40
0.4962115737864979
 40
0.6177363456960046
 40
0.7413364209873406
 40
0.8685624353548417
 40
0.9999999999999999
 40
0.9999999999999999
 40
0.9999999999999999
 40
0.9999999999999999
 10
15.26826054216867
 20
-2.808734939759019
 30
0.0
 10
15.44255291776508
 20
-2.984029885620737
 30
0.0
 10
15.78574274348255
 20
-3.329193819003238
 30
0.0
 10
16.35784577622129
 20
-3.773066385420021
 30
0.0
 10
16.95711313507171
 20
-4.155837309386484
 30
0.0
 10
17.59328497742141
 20
-4.462691561570798
 30
0.0
 10
18.25850174347314
 20
-4.706796929796142
 30
0.0
 10
18.95816663400707
 20
-4.873010738389618
 30
0.0
 10
19.68875908631399
 20
-4.982405412358601
 30
0.0
 10
20.18784653019237
 20
-4.99407182012121
 30
0.0
 10
20.44145331325301
 20
-4.999999999999984
 30
0.0
  0
SPLINE
  5
E3
330
1F
100
AcDbEntity
  8
0
  6
Continuous
 62
     7
370
    15
100
AcDbSpline
210
0.0
220
0.0
230
1.0
 70
     8
 71
     3
 72
    15
 73
    11
 74
     0
 42
0.000000001
 43
0.00000001
 40
0.0
 40
0.0
 40
0.0
 40
0.0
 40
0.101636952334929
 40
0.1934350143519379
 40
0.2904411837425341
 40
0.3959572368133812
 40
0.5167945864912116
 40
0.6540205572643023
 40
0.8145416533783113
 40
1.0
 40
1.0
 40
1.0
 40
1.0
 10
20.44145331325301
 20
-4.999999999999984
 30
0.0
 10
20.47099725752502
 20
-4.997958147875518
 30
0.0
 10
20.5272251663021
 20
-4.994072103617724
 30
0.0
 10
20.60570007897572
 20
-4.960121531246031
 30
0.0
 10
20.67280448107793
 20
-4.905359439256022
 30
0.0
 10
20.72212163141053
 20
-4.82465168561342
 30
0.0
 10
20.76574852777068
 20
-4.728529707744396
 30
0.0
 10
20.79200767968856
 20
-4.609557690574094
 30
0.0
 10
20.80882668093922
 20
-4.470577024565165
 30
0.0
 10
20.81048275972408
 20
-4.370361147661983
 30
0.0
 10
20.81137048192771
 20
-4.316641566265044
 30
0.0
  0
SPLINE
  5
E4
330
1F
100
AcDbEntity
  8
0
  6
Continuous
 62
     7
370
    15
100
AcDbSpline
210
0.0
220
0.0
230
1.0
 70
     8
 71
     3
 72
     9
 73
     5
 74
     0
 42
0.000000001
 43
0.00000001
 40
0.0
 40
0.0
 40
0.0
 40
0.0
 40
0.5442454805179706
 40
1.0
 40
1.0
 40
1.0
 40
1.0
 10
20.81137048192771
 20
-4.316641566265044
 30
0.0
 10
20.80854652818314
 20
-4.238030230350367
 30
0.0
 10
20.8033577781693
 20
-4.093589277271874
 30
0.0
 10
20.7409707985299
 20
-3.96360732986243
 30
0.0
 10
20.71253765060241
 20
-3.904367469879502
 30
0.0
  0
SPLINE
  5
E5
330
1F
100
AcDbEntity
  8
0
  6
Continuous
 62
     7
370
    15
100
AcDbSpline
210
0.0
220
0.0
230
1.0
 70
     8
 71
     3
 72
     9
 73
     5
 74
     0
 42
0.000000001
 43
0.00000001
 40
0.0
 40
0.0
 40
0.0
 40
0.0
 40
0.5937592583781771
 40
1.0
 40
1.0
 40
1.0
 40
1.0
 10
20.71253765060241
 20
-3.904367469879502
 30
0.0
 10
20.66214443156692
 20
-3.864524664119323
 30
0.0
 10
20.57727296501809
 20
-3.79742203759522
 30
0.0
 10
20.48068946566048
 20
-3.748973811836972
 30
0.0
 10
20.44145331325301
 20
-3.72929216867468
 30
0.0
  0
SPLINE
  5
E6
330
1F
100
AcDbEntity
  8
0
  6
Continuous
 62
     7
370
    15
100
AcDbSpline
210
0.0
220
0.0
230
1.0
 70
     8
 71
     3
 72
    15
 73
    11
 74
     0
 42
0.000000001
 43
0.00000001
 40
0.0
 40
0.0
 40
0.0
 40
0.0
 40
0.0860137243891222
 40
0.1943147334281476
 40
0.3274062343570945
 40
0.4865396953272465
 40
0.6474680811085022
 40
0.7856636254394876
 40
0.9018391853140616
 40
1.0
 40
1.0
 40
1.0
 40
1.0
 10
40.46498493975902
 20
9.375941265060257
 30
0.0
 10
40.40534491032443
 20
9.380606111106609
 30
0.0
 10
40.2706113372402
 20
9.39114452602141
 30
0.0
 10
40.05237473322424
 20
9.458535714619396
 30
0.0
 10
39.79161849896238
 20
9.553956378139294
 30
0.0
 10
39.50625693728614
 20
9.686319011522809
 30
0.0
 10
39.21959909908232
 20
9.82459754362389
 30
0.0
 10
38.94719607088123
 20
9.918579056070232
 30
0.0
 10
38.71085214431672
 20
9.986014820453585
 30
0.0
 10
38.56210051146995
 20
9.995607011310693
 30
0.0
 10
38.49397590361446
 20
10.00000000000002
 30
0.0
  0
SPLINE
  5
E8
330
1F
100
AcDbEntity
  8
0
  6
Continuous
 62
     7
370
    15
100
AcDbSpline
210
0.0
220
0.0
230
1.0
 70
     8
 71
     3
 72
    15
 73
    11
 74
     0
 42
0.000000001
 43
0.00000001
 40
0.0
 40
0.0
 40
0.0
 40
0.0
 40
0.0668109614568313
 40
0.1405716308821541
 40
0.2314574725540092
 40
0.3384025525988004
 40
0.4683174728345403
 40
0.621776313412617
 40
0.7998843819690727
 40
1.0
 40
1.0
 40
1.0
 40
1.0
 10
38.22006777108432
 20
10.00000000000002
 30
0.0
 10
38.19938701089536
 20
9.990960014274808
 30
0.0
 10
38.15587426801225
 20
9.97193969921222
 30
0.0
 10
38.10421952376031
 20
9.9118898308467
 30
0.0
 10
38.05921079399975
 20
9.83282479799407
 30
0.0
 10
38.02755639906413
 20
9.727364669411253
 30
0.0
 10
37.99873905242262
 20
9.600213998109515
 30
0.0
 10
37.98138998571419
 20
9.446849977825526
 30
0.0
 10
37.96553635320041
 20
9.26990083133993
 30
0.0
 10
37.96579130927088
 20
9.143497912966932
 30
0.0
 10
37.96592620481927
 20
9.076618975903632
 30
0.0
  0
SPLINE
  5
E9
330
1F
100
AcDbEntity
  8
0
  6
Continuous
 62
     7
370
    15
100
AcDbSpline
210
0.0
220
0.0
230
1.0
 70
     8
 71
     3
 72
    15
 73
    11
 74
     0
 42
0.000000001
 43
0.00000001
 40
0.0
 40
0.0
 40
0.0
 40
0.0
 40
0.1981637957439369
 40
0.3724454386298513
 40
0.5208592667934528
 40
0.6461647896712671
 40
0.7498703867219093
 40
0.8390733604554801
 40
0.9178359915122412
 40
1.0
 40
1.0
 40
1.0
 40
1.0
 10
37.96592620481927
 20
9.076618975903632
 30
0.0
 10
37.9661184497981
 20
8.99367525839184
 30
0.0
 10
37.96647977092235
 20
8.83778397091273
 30
0.0
 10
37.99203553033175
 20
8.621438063692473
 30
0.0
 10
38.01810706093376
 20
8.435351262598719
 30
0.0
 10
38.06715259669237
 20
8.285114767015392
 30
0.0
 10
38.12368518849299
 20
8.162941050069215
 30
0.0
 10
38.20249495199288
 20
8.079767614812416
 30
0.0
 10
38.29220996399742
 20
8.020338520315443
 30
0.0
 10
38.36035194868232
 20
8.014850301977
 30
0.0
 10
38.39514307228914
 20
8.012048192771102
 30
0.0
  0
SPLINE
  5
EA
330
1F
100
AcDbEntity
  8
0
  6
Continuous
 62
     7
370
    15
100
AcDbSpline
210
0.0
220
0.0
230
1.0
 70
     8
 71
     3
 72
    15
 73
    11
 74
     0
 42
0.000000001
 43
0.00000001
 40
0.0
 40
0.0
 40
0.0
 40
0.0
 40
0.1071027172772228
 40
0.2146521409742925
 40
0.326570608760607
 40
0.4432185810923705
 40
0.5682959065714535
 40
0.701569424783913
 40
0.8451427935217937
 40
1.0
 40
1.0
 40
1.0
 40
1.0
 10
38.39514307228914
 20
8.012048192771102
 30
0.0
 10
38.48970044414667
 20
8.008810558728667
 30
0.0
 10
38.679209569873
 20
8.002321787046986
 30
0.0
 10
38.95962868474697
 20
7.931011996554585
 30
0.0
 10
39.23789636589152
 20
7.828079812409827
 30
0.0
 10
39.51135180135026
 20
7.676709555199103
 30
0.0
 10
39.78291316798445
 20
7.487545838097497
 30
0.0
 10
40.04860063716122
 20
7.252555374304254
 30
0.0
 10
40.31244043644016
 20
6.977906660597112
 30
0.0
 10
40.47608035516203
 20
6.771963097491181
 30
0.0
 10
40.56099397590361
 20
6.665097891566281
 30
0.0
  0
SPLINE
  5
EB
330
1F
100
AcDbEntity
  8
0
  6
Continuous
 62
     7
370
    15
100
AcDbSpline
210
0.0
220
0.0
230
1.0
 70
     8
 71
     3
 72
    15
 73
    11
 74
     0
 42
0.000000001
 43
0.00000001
 40
0.0
 40
0.0
 40
0.0
 40
0.0
 40
0.0419091500486361
 40
0.1039175464900492
 40
0.1949570982410241
 40
0.3071152716989821
 40
0.4435267842765806
 40
0.6033350096759437
 40
0.7904542497568241
 40
0.9999999999999999
 40
0.9999999999999999
 40
0.9999999999999999
 40
0.9999999999999999
 10
40.56099397590361
 20
6.665097891566281
 30
0.0
 10
40.56889407248459
 20
6.654971278823001
 30
0.0
 10
40.58848307996333
 20
6.629861422161262
 30
0.0
 10
40.61243071907051
 20
6.574887766844435
 30
0.0
 10
40.64642016474608
 20
6.501519016447193
 30
0.0
 10
40.68303871334663
 20
6.404269015377337
 30
0.0
 10
40.72037286760194
 20
6.285245864759601
 30
0.0
 10
40.77142770115127
 20
6.146621840033861
 30
0.0
 10
40.81953514592897
 20
5.983516439340685
 30
0.0
 10
40.85545820734721
 20
5.867795776018289
 30
0.0
 10
40.87443524096385
 20
5.806664156626522
 30
0.0
  0
SPLINE
  5
EC
330
1F
100
AcDbEntity
  8
0
  6
Continuous
 62
     7
370
    15
100
AcDbSpline
210
0.0
220
0.0
230
1.0
 70
     8
 71
     3
 72
    11
 73
     7
 74
     0
 42
0.000000001
 43
0.00000001
 40
0.0
 40
0.0
 40
0.0
 40
0.0
 40
0.3209359917830679
 40
0.5892967363724301
 40
0.815238970978063
 40
1.0
 40
1.0
 40
1.0
 40
1.0
 10
40.87443524096385
 20
5.806664156626522
 30
0.0
 10
40.90567574080147
 20
5.701137281620207
 30
0.0
 10
40.96303896919688
 20
5.507370784147287
 30
0.0
 10
41.0794072719258
 20
5.253955052558015
 30
0.0
 10
41.19303077429637
 20
5.048162866150006
 30
0.0
 10
41.29659522017472
 20
4.951970754646536
 30
0.0
 10
41.34318524096384
 20
4.908697289156643
 30
0.0
  0
SPLINE
  5
F0
330
1F
100
AcDbEntity
  8
0
  6
Continuous
 62
     7
370
    15
100
AcDbSpline
210
0.0
220
0.0
230
1.0
 70
     8
 71
     3
 72
    11
 73
     7
 74
     0
 42
0.000000001
 43
0.00000001
 40
0.0
 40
0.0
 40
0.0
 40
0.0
 40
0.2981282218351441
 40
0.5561187493663687
 40
0.7837873158773864
 40
1.0
 40
1.0
 40
1.0
 40
1.0
 10
41.45896084337348
 20
10.00000000000002
 30
0.0
 10
41.38333938407285
 20
9.905350242386506
 30
0.0
 10
41.24227755801471
 20
9.728793643659118
 30
0.0
 10
40.99278560884682
 20
9.529199607972773
 30
0.0
 10
40.73330547977127
 20
9.400511056098445
 30
0.0
 10
40.55287289192253
 20
9.383989059758843
 30
0.0
 10
40.46498493975903
 20
9.37594126506026
 30
0.0
  0
SPLINE
  5
F1
330
1F
100
AcDbEntity
  8
0
  6
Continuous
 62
     7
370
    15
100
AcDbSpline
210
0.0
220
0.0
230
1.0
 70
     8
 71
     3
 72
    11
 73
     7
 74
     0
 42
0.000000001
 43
0.00000001
 40
0.0
 40
0.0
 40
0.0
 40
0.0
 40
0.2814371471883845
 40
0.5410187865133982
 40
0.7786795928213389
 40
1.0
 40
1.0
 40
1.0
 40
1.0
 10
40.35485692771083
 20
4.22251506024098
 30
0.0
 10
40.08200544649498
 20
4.265669660655901
 30
0.0
 10
39.55749125659322
 20
4.348627613371804
 30
0.0
 10
38.80072533634901
 20
4.455299825914329
 30
0.0
 10
38.10110014884854
 20
4.546245523842273
 30
0.0
 10
37.65173584917759
 20
4.579311590711595
 30
0.0
 10
37.43505271084336
 20
4.595256024096402
 30
0.0
  0
SPLINE
  5
F2
330
1F
100
AcDbEntity
  8
0
  6
Continuous
 62
     7
370
    15
100
AcDbSpline
210
0.0
220
0.0
230
1.0
 70
     8
 71
     3
 72
    15
 73
    11
 74
     0
 42
0.000000001
 43
0.00000001
 40
0.0
 40
0.0
 40
0.0
 40
0.0
 40
0.1461478082385705
 40
0.2840315834857781
 40
0.4130906503092881
 40
0.5361804528800765
 40
0.654075946352253
 40
0.769341469727385
 40
0.884383279599159
 40
1.0
 40
1.0
 40
1.0
 40
1.0
 10
37.43505271084336
 20
4.595256024096402
 30
0.0
 10
37.28598486801157
 20
4.60953007512112
 30
0.0
 10
36.99627833079681
 20
4.637271040683115
 30
0.0
 10
36.58066844769277
 20
4.721596663085689
 30
0.0
 10
36.1992387324219
 20
4.841741134938697
 30
0.0
 10
35.84859095785914
 20
4.988318540323697
 30
0.0
 10
35.5360073542618
 20
5.17863124436605
 30
0.0
 10
35.25246293757223
 20
5.396145720746608
 30
0.0
 10
35.00450898391858
 20
5.651668799182047
 30
0.0
 10
34.86858379615168
 20
5.845199692982155
 30
0.0
 10
34.8004518072289
 20
5.942206325301222
 30
0.0
  0
SPLINE
  5
F3
330
1F
100
AcDbEntity
  8
0
  6
Continuous
 62
     7
370
    15
100
AcDbSpline
210
0.0
220
0.0
230
1.0
 70
     8
 71
     3
 72
    11
 73
     7
 74
     0
 42
0.000000001
 43
0.00000001
 40
0.0
 40
0.0
 40
0.0
 40
0.0
 40
0.2741087270941985
 40
0.5319453630437588
 40
0.7690548941341014
 40
1.0
 40
1.0
 40
1.0
 40
1.0
 10
34.8004518072289
 20
5.942206325301222
 30
0.0
 10
34.76792942341674
 20
5.996038395261138
 30
0.0
 10
34.70481530279966
 20
6.100506867687352
 30
0.0
 10
34.63742711515833
 20
6.26397649951768
 30
0.0
 10
34.59481456252603
 20
6.425752667540087
 30
0.0
 10
34.58880739776153
 20
6.533076469474049
 30
0.0
 10
34.58584337349397
 20
6.586031626506041
 30
0.0
  0
SPLINE
  5
F4
330
1F
100
AcDbEntity
  8
0
  6
Continuous
 62
     7
370
    15
100
AcDbSpline
210
0.0
220
0.0
230
1.0
 70
     8
 71
     3
 72
    11
 73
     7
 74
     0
 42
0.000000001
 43
0.00000001
 40
0.0
 40
0.0
 40
0.0
 40
0.0
 40
0.2451845870123923
 40
0.4859425937316345
 40
0.7353502839477318
 40
0.9999999999999999
 40
0.9999999999999999
 40
0.9999999999999999
 40
0.9999999999999999
 10
34.58584337349397
 20
6.586031626506041
 30
0.0
 10
34.59127841259593
 20
6.687636136555279
 30
0.0
 10
34.60205036621024
 20
6.889010781469905
 30
0.0
 10
34.70606722755817
 20
7.177884178040418
 30
0.0
 10
34.86435081037706
 20
7.449325390801831
 30
0.0
 10
35.0141713294879
 20
7.600837900610902
 30
0.0
 10
35.09130271084336
 20
7.6788403614458
 30
0.0
  0
SPLINE
  5
F5
330
1F
100
AcDbEntity
  8
0
  6
Continuous
 62
     7
370
    15
100
AcDbSpline
210
0.0
220
0.0
230
1.0
 70
     8
 71
     3
 72
    11
 73
     7
 74
     0
 42
0.000000001
 43
0.00000001
 40
0.0
 40
0.0
 40
0.0
 40
0.0
 40
0.2520583310803726
 40
0.5000611709404881
 40
0.7459689011956516
 40
1.0
 40
1.0
 40
1.0
 40
1.0
 10
35.09130271084336
 20
7.6788403614458
 30
0.0
 10
35.16713527072179
 20
7.750508337167397
 30
0.0
 10
35.31758028289688
 20
7.892691187084186
 30
0.0
 10
35.5823869326363
 20
8.052732204617959
 30
0.0
 10
35.8619256952051
 20
8.18662388136887
 30
0.0
 10
36.06245238374149
 20
8.23750966001872
 30
0.0
 10
36.16434487951806
 20
8.263365963855438
 30
0.0
  0
SPLINE
  5
F6
330
1F
100
AcDbEntity
  8
0
  6
Continuous
 62
     7
370
    15
100
AcDbSpline
210
0.0
220
0.0
230
1.0
 70
     8
 71
     3
 72
    15
 73
    11
 74
     0
 42
0.000000001
 43
0.00000001
 40
0.0
 40
0.0
 40
0.0
 40
0.0
 40
0.1015248788042181
 40
0.2018137564848048
 40
0.3034701726520755
 40
0.4145488467084499
 40
0.5382264178836004
 40
0.676494092535885
 40
0.8297654010668585
 40
0.9999999999999999
 40
0.9999999999999999
 40
0.9999999999999999
 40
0.9999999999999999
 10
36.16434487951806
 20
8.263365963855438
 30
0.0
 10
36.19414944159115
 20
8.27529979625507
 30
0.0
 10
36.25339571406347
 20
8.299022174200216
 30
0.0
 10
36.33133803822265
 20
8.356866670486276
 30
0.0
 10
36.39374767042003
 20
8.433935378713276
 30
0.0
 10
36.44959723746753
 20
8.52492146039265
 30
0.0
 10
36.4859388976158
 20
8.637457161040523
 30
0.0
 10
36.51868523882319
 20
8.764340006616
 30
0.0
 10
36.53393223199559
 20
8.909666174460257
 30
0.0
 10
36.53599852369614
 20
9.011655294640663
 30
0.0
 10
36.53708584337348
 20
9.065323795180738
 30
0.0
  0
SPLINE
  5
F7
330
1F
100
AcDbEntity
  8
0
  6
Continuous
 62
     7
370
    15
100
AcDbSpline
210
0.0
220
0.0
230
1.0
 70
     8
 71
     3
 72
     9
 73
     5
 74
     0
 42
0.000000001
 43
0.00000001
 40
0.0
 40
0.0
 40
0.0
 40
0.0
 40
0.4985330178472197
 40
0.9999999999999999
 40
0.9999999999999999
 40
0.9999999999999999
 40
0.9999999999999999
 10
36.53708584337348
 20
9.065323795180738
 30
0.0
 10
36.53279103390651
 20
9.162405863287056
 30
0.0
 10
36.52417613917895
 20
9.357141346456338
 30
0.0
 10
36.4537851850973
 20
9.538924554554352
 30
0.0
 10
36.41848644578312
 20
9.630082831325318
 30
0.0
  0
SPLINE
  5
F8
330
1F
100
AcDbEntity
  8
0
  6
Continuous
 62
     7
370
    15
100
AcDbSpline
210
0.0
220
0.0
230
1.0
 70
     8
 71
     3
 72
    11
 73
     7
 74
     0
 42
0.000000001
 43
0.00000001
 40
0.0
 40
0.0
 40
0.0
 40
0.0
 40
0.3111361369506538
 40
0.5646983143326404
 40
0.7890856341403737
 40
1.0
 40
1.0
 40
1.0
 40
1.0
 10
36.41848644578312
 20
9.630082831325318
 30
0.0
 10
36.39516984977502
 20
9.684824993317822
 30
0.0
 10
36.3528512602637
 20
9.784179593857179
 30
0.0
 10
36.26475191539988
 20
9.907961020898881
 30
0.0
 10
36.15307988218015
 20
9.98671490776065
 30
0.0
 10
36.06936474999635
 20
9.99566396285202
 30
0.0
 10
36.02880271084337
 20
10.00000000000002
 30
0.0
  0
SPLINE
  5
F9
330
1F
100
AcDbEntity
  8
0
  6
Continuous
 62
     7
370
    15
100
AcDbSpline
210
0.0
220
0.0
230
1.0
 70
     8
 71
     3
 72
    15
 73
    11
 74
     0
 42
0.000000001
 43
0.00000001
 40
0.0
 40
0.0
 40
0.0
 40
0.0
 40
0.1276484701967484
 40
0.2525447989363255
 40
0.3745402929534213
 40
0.4962878283929975
 40
0.617973295240498
 40
0.7417565174143574
 40
0.8691253318754716
 40
1.0
 40
1.0
 40
1.0
 40
1.0
 10
36.02880271084337
 20
10.00000000000002
 30
0.0
 10
35.87422842751685
 20
9.995454836597528
 30
0.0
 10
35.56841253138234
 20
9.986462504955439
 30
0.0
 10
35.11846943655373
 20
9.921142845651152
 30
0.0
 10
34.68572228088637
 20
9.809157054850296
 30
0.0
 10
34.26912564008919
 20
9.657765113223995
 30
0.0
 10
33.87067769190285
 20
9.45804885873405
 30
0.0
 10
33.49157586982658
 20
9.21197321206364
 30
0.0
 10
33.12479993498005
 20
8.928508156274756
 30
0.0
 10
32.90254549561425
 20
8.70821546305982
 30
0.0
 10
32.78990963855421
 20
8.59657379518074
 30
0.0
  0
SPLINE
  5
FA
330
1F
100
AcDbEntity
  8
0
  6
Continuous
 62
     7
370
    15
100
AcDbSpline
210
0.0
220
0.0
230
1.0
 70
     8
 71
     3
 72
    15
 73
    11
 74
     0
 42
0.000000001
 43
0.00000001
 40
0.0
 40
0.0
 40
0.0
 40
0.0
 40
0.1307159664438299
 40
0.2578139041700875
 40
0.3814717354524134
 40
0.5036081988326342
 40
0.62601694129079
 40
0.7481363670717874
 40
0.8726637315258119
 40
1.0
 40
1.0
 40
1.0
 40
1.0
 10
32.78990963855421
 20
8.59657379518074
 30
0.0
 10
32.68427072996889
 20
8.476880911197792
 30
0.0
 10
32.47591684485761
 20
8.240808068984732
 30
0.0
 10
32.20388586160956
 20
7.861626947801917
 30
0.0
 10
31.97719011220951
 20
7.466131025102886
 30
0.0
 10
31.78908730131897
 20
7.057205949855634
 30
0.0
 10
31.64208734570734
 20
6.633599483778445
 30
0.0
 10
31.53704121582996
 20
6.194866761869831
 30
0.0
 10
31.47320504234597
 20
5.741731734909057
 30
0.0
 10
31.46624482442101
 20
5.434130389430762
 30
0.0
 10
31.46272590361444
 20
5.278614457831342
 30
0.0
  0
SPLINE
  5
FB
330
1F
100
AcDbEntity
  8
0
  6
Continuous
 62
     7
370
    15
100
AcDbSpline
210
0.0
220
0.0
230
1.0
 70
     8
 71
     3
 72
    15
 73
    11
 74
     0
 42
0.000000001
 43
0.00000001
 40
0.0
 40
0.0
 40
0.0
 40
0.0
 40
0.1253019069463077
 40
0.2473538658246258
 40
0.3674837041045713
 40
0.4885636304598883
 40
0.6108964243571139
 40
0.7355967640918023
 40
0.8650728712838118
 40
1.0
 40
1.0
 40
1.0
 40
1.0
 10
31.46272590361444
 20
5.278614457831342
 30
0.0
 10
31.46669107654564
 20
5.12584286586883
 30
0.0
 10
31.47451857795481
 20
4.824262109589498
 30
0.0
 10
31.54806542646028
 20
4.381194415241631
 30
0.0
 10
31.6648299443772
 20
3.953673935723281
 30
0.0
 10
31.82520528144654
 20
3.539715023329475
 30
0.0
 10
32.03643438763419
 20
3.14293727974525
 30
0.0
 10
32.29305363578158
 20
2.761868513853023
 30
0.0
 10
32.59607979150631
 20
2.395924346880461
 30
0.0
 10
32.82725021839023
 20
2.171294566467077
 30
0.0
 10
32.94521837349397
 20
2.056664156626522
 30
0.0
  0
SPLINE
  5
FC
330
1F
100
AcDbEntity
  8
0
  6
Continuous
 62
     7
370
    15
100
AcDbSpline
210
0.0
220
0.0
230
1.0
 70
     8
 71
     3
 72
    15
 73
    11
 74
     0
 42
0.000000001
 43
0.00000001
 40
0.0
 40
0.0
 40
0.0
 40
0.0
 40
0.1176901479403995
 40
0.2362730278743713
 40
0.3561573468148935
 40
0.478838342555643
 40
0.6032311971906101
 40
0.7312667339589953
 40
0.8637324395388628
 40
1.0
 40
1.0
 40
1.0
 40
1.0
 10
32.94521837349397
 20
2.056664156626522
 30
0.0
 10
33.05682048484824
 20
1.957171756477442
 30
0.0
 10
33.28087125909148
 20
1.757432262177408
 30
0.0
 10
33.64320469393868
 20
1.485522651741145
 30
0.0
 10
34.03290188629665
 20
1.2428069187206
 30
0.0
 10
34.44432296254254
 20
1.023265126225454
 30
0.0
 10
34.87873767337536
 20
0.826639712060654
 30
0.0
 10
35.33814208554961
 20
0.6588652780971995
 30
0.0
 10
35.81988372706695
 20
0.5094749867837496
 30
0.0
 10
36.15337352010155
 20
0.436234637451953
 30
0.0
 10
36.32247740963854
 20
0.3990963855421848
 30
0.0
  0
SPLINE
  5
FD
330
1F
100
AcDbEntity
  8
0
  6
Continuous
 62
     7
370
    15
100
AcDbSpline
210
0.0
220
0.0
230
1.0
 70
     8
 71
     3
 72
    15
 73
    11
 74
     0
 42
0.000000001
 43
0.00000001
 40
0.0
 40
0.0
 40
0.0
 40
0.0
 40
0.19800653691418
 40
0.3745747631291909
 40
0.5310366264325757
 40
0.6660822867079961
 40
0.7799960548503597
 40
0.8736352897435702
 40
0.9473761806289225
 40
0.9999999999999999
 40
0.9999999999999999
 40
0.9999999999999999
 40
0.9999999999999999
 10
36.32247740963855
 20
0.3990963855421848
 30
0.0
 10
36.48627501906127
 20
0.3662446981289695
 30
0.0
 10
36.79613575248357
 20
0.3040981992154905
 30
0.0
 10
37.23516076796685
 20
0.2145835290645257
 30
0.0
 10
37.62074739682946
 20
0.1292209824139256
 30
0.0
 10
37.95460795887231
 20
0.0546711884003084
 30
0.0
 10
38.23469523090583
 20
-0.016930276333732
 30
0.0
 10
38.46402958945178
 20
-0.0778858959628592
 30
0.0
 10
38.64173443202202
 20
-0.1321737497552919
 30
0.0
 10
38.74076311564758
 20
-0.1717653355724508
 30
0.0
 10
38.78200301204818
 20
-0.188253012048176
 30
0.0
  0
SPLINE
  5
FE
330
1F
100
AcDbEntity
  8
0
  6
Continuous
 62
     7
370
    15
100
AcDbSpline
210
0.0
220
0.0
230
1.0
 70
     8
 71
     3
 72
    15
 73
    11
 74
     0
 42
0.000000001
 43
0.00000001
 40
0.0
 40
0.0
 40
0.0
 40
0.0
 40
0.1524606195587596
 40
0.2906546558652015
 40
0.4188280633558139
 40
0.5401872933155425
 40
0.653979281204891
 40
0.7668275132738895
 40
0.88031106764412
 40
1.0
 40
1.0
 40
1.0
 40
1.0
 10
38.78200301204818
 20
-0.188253012048176
 30
0.0
 10
38.88102617442853
 20
-0.2291980793890959
 30
0.0
 10
39.06980635430475
 20
-0.3072567577008783
 30
0.0
 10
39.32405602824705
 20
-0.4567091319616045
 30
0.0
 10
39.542425493594
 20
-0.620481097578205
 30
0.0
 10
39.72133865172417
 20
-0.8037777076353101
 30
0.0
 10
39.8618014239924
 20
-1.005548081209793
 30
0.0
 10
39.95659632507946
 20
-1.225863282429022
 30
0.0
 10
40.02004104400434
 20
-1.462038759223447
 30
0.0
 10
40.02670158403024
 20
-1.626076824082213
 30
0.0
 10
40.03012048192771
 20
-1.710278614457815
 30
0.0
  0
SPLINE
  5
FF
330
1F
100
AcDbEntity
  8
0
  6
Continuous
 62
     7
370
    15
100
AcDbSpline
210
0.0
220
0.0
230
1.0
 70
     8
 71
     3
 72
    15
 73
    11
 74
     0
 42
0.000000001
 43
0.00000001
 40
0.0
 40
0.0
 40
0.0
 40
0.0
 40
0.1046047662885115
 40
0.2048135115349013
 40
0.3085474020449192
 40
0.4211716713270273
 40
0.5447630151592321
 40
0.6818707083901242
 40
0.8330108383316748
 40
1.0
 40
1.0
 40
1.0
 40
1.0
 10
40.0301204819277
 20
-1.710278614457815
 30
0.0
 10
40.02532697105789
 20
-1.79492264189764
 30
0.0
 10
40.01594139687556
 20
-1.960653526880372
 30
0.0
 10
39.9217709134005
 20
-2.195225208477758
 30
0.0
 10
39.77049155484896
 20
-2.403456462310792
 30
0.0
 10
39.55860312183128
 20
-2.580621602469363
 30
0.0
 10
39.29762853368999
 20
-2.732118632717348
 30
0.0
 10
38.99094688713492
 20
-2.86103397741082
 30
0.0
 10
38.6382592743573
 20
-2.964795275906748
 30
0.0
 10
38.38624044814816
 20
-3.012448636558734
 30
0.0
 10
38.253953313253
 20
-3.037462349397575
 30
0.0
  0
SPLINE
  5
100
330
1F
100
AcDbEntity
  8
0
  6
Continuous
 62
     7
370
    15
100
AcDbSpline
210
0.0
220
0.0
230
1.0
 70
     8
 71
     3
 72
     9
 73
     5
 74
     0
 42
0.000000001
 43
0.00000001
 40
0.0
 40
0.0
 40
0.0
 40
0.0
 40
0.5631305617190377
 40
1.0
 40
1.0
 40
1.0
 40
1.0
 10
38.253953313253
 20
-3.037462349397575
 30
0.0
 10
38.17275933701017
 20
-3.044219494045886
 30
0.0
 10
38.02857611954283
 20
-3.056218744499786
 30
0.0
 10
37.88671237860088
 20
-3.084435159027661
 30
0.0
 10
37.82473644578312
 20
-3.096762048192755
 30
0.0
  0
SPLINE
  5
101
330
1F
100
AcDbEntity
  8
0
  6
Continuous
 62
     7
370
    15
100
AcDbSpline
210
0.0
220
0.0
230
1.0
 70
     8
 71
     3
 72
    15
 73
    11
 74
     0
 42
0.000000001
 43
0.00000001
 40
0.0
 40
0.0
 40
0.0
 40
0.0
 40
0.0814288935970139
 40
0.1655475950956133
 40
0.2584694722001381
 40
0.367226303159449
 40
0.4958550411674034
 40
0.6433092232355891
 40
0.8100094205458348
 40
1.0
 40
1.0
 40
1.0
 40
1.0
 10
37.82473644578312
 20
-3.096762048192755
 30
0.0
 10
37.79748628984282
 20
-3.107461922847258
 30
0.0
 10
37.74208583451766
 20
-3.129215116813564
 30
0.0
 10
37.6729107944391
 20
-3.192925778381785
 30
0.0
 10
37.61524441363245
 20
-3.277782695783046
 30
0.0
 10
37.57161669636743
 20
-3.3880454812481
 30
0.0
 10
37.53624158864932
 20
-3.520787142000992
 30
0.0
 10
37.50707420925911
 20
-3.676396535404119
 30
0.0
 10
37.4953764424353
 20
-3.856190420638586
 30
0.0
 10
37.49286586706168
 20
-3.983430606423886
 30
0.0
 10
37.49152861445782
 20
-4.051204819277094
 30
0.0
  0
SPLINE
  5
102
330
1F
100
AcDbEntity
  8
0
  6
Continuous
 62
     7
370
    15
100
AcDbSpline
210
0.0
220
0.0
230
1.0
 70
     8
 71
     3
 72
    15
 73
    11
 74
     0
 42
0.000000001
 43
0.00000001
 40
0.0
 40
0.0
 40
0.0
 40
0.0
 40
0.1990182171187778
 40
0.3695311652967424
 40
0.5183152803345449
 40
0.6407968679803852
 40
0.7464369667307544
 40
0.8347740346528925
 40
0.9167056267881243
 40
1.0
 40
1.0
 40
1.0
 40
1.0
 10
37.49152861445782
 20
-4.051204819277094
 30
0.0
 10
37.49253646865235
 20
-4.121815425891243
 30
0.0
 10
37.49440782264369
 20
-4.25292312106703
 30
0.0
 10
37.5097216519943
 20
-4.43659047559708
 30
0.0
 10
37.5409935665154
 20
-4.590333301446186
 30
0.0
 10
37.5784130806969
 20
-4.719348785688846
 30
0.0
 10
37.63210569422292
 20
-4.818791862418154
 30
0.0
 10
37.69486193054149
 20
-4.895286204042577
 30
0.0
 10
37.77561002614578
 20
-4.941427969196221
 30
0.0
 10
37.83455433701808
 20
-4.946576293132672
 30
0.0
 10
37.86426957831324
 20
-4.94917168674697
 30
0.0
  0
SPLINE
  5
103
330
1F
100
AcDbEntity
  8
0
  6
Continuous
 62
     7
370
    15
100
AcDbSpline
210
0.0
220
0.0
230
1.0
 70
     8
 71
     3
 72
    15
 73
    11
 74
     0
 42
0.000000001
 43
0.00000001
 40
0.0
 40
0.0
 40
0.0
 40
0.0
 40
0.1236490377651021
 40
0.2456676676101129
 40
0.3673710784368001
 40
0.4889119706212455
 40
0.6114216967427702
 40
0.7371850576722299
 40
0.8663107371750126
 40
1.0
 40
1.0
 40
1.0
 40
1.0
 10
43.46385542168674
 20
-0.0498870481927538
 30
0.0
 10
43.45959803170508
 20
0.0848706740576438
 30
0.0
 10
43.45113938871192
 20
0.3526092340664817
 30
0.0
 10
43.3972025481556
 20
0.7502080004846701
 30
0.0
 10
43.30339739478233
 20
1.137739146917538
 30
0.0
 10
43.17280112799924
 20
1.514951604190434
 30
0.0
 10
43.00537936286111
 20
1.882416664283333
 30
0.0
 10
42.79644606912475
 20
2.237176046605498
 30
0.0
 10
42.55820680418027
 20
2.588191936124067
 30
0.0
 10
42.37051375124557
 20
2.80487506005979
 30
0.0
 10
42.2750376506024
 20
2.915097891566281
 30
0.0
  0
SPLINE
  5
104
330
1F
100
AcDbEntity
  8
0
  6
Continuous
 62
     7
370
    15
100
AcDbSpline
210
0.0
220
0.0
230
1.0
 70
     8
 71
     3
 72
    11
 73
     7
 74
     0
 42
0.000000001
 43
0.00000001
 40
0.0
 40
0.0
 40
0.0
 40
0.0
 40
0.2639369681451559
 40
0.5170495726881025
 40
0.7604937424699385
 40
1.0
 40
1.0
 40
1.0
 40
1.0
 10
42.2750376506024
 20
2.915097891566281
 30
0.0
 10
42.13054461517073
 20
3.062724094890832
 30
0.0
 10
41.84748437260077
 20
3.351922178368657
 30
0.0
 10
41.37551333835639
 20
3.716109295393143
 30
0.0
 10
40.8812726232381
 20
4.015362350546954
 30
0.0
 10
40.52937237726806
 20
4.153840534450024
 30
0.0
 10
40.35485692771083
 20
4.22251506024098
 30
0.0
  0
SPLINE
  5
105
330
1F
100
AcDbEntity
  8
0
  6
Continuous
 62
     7
370
    15
100
AcDbSpline
210
0.0
220
0.0
230
1.0
 70
     8
 71
     3
 72
    15
 73
    11
 74
     0
 42
0.000000001
 43
0.00000001
 40
0.0
 40
0.0
 40
0.0
 40
0.0
 40
0.0819620070019871
 40
0.187638126117068
 40
0.319446387122049
 40
0.4778937710111535
 40
0.6382525592870102
 40
0.7789971746145008
 40
0.8977954292739702
 40
1.0
 40
1.0
 40
1.0
 40
1.0
 10
33.47609186746987
 20
-4.375941265060225
 30
0.0
 10
33.53291021611629
 20
-4.380685474139112
 30
0.0
 10
33.66298619715984
 20
-4.391546536892839
 30
0.0
 10
33.87526878765013
 20
-4.459414466570867
 30
0.0
 10
34.13333574673511
 20
-4.553172445730235
 30
0.0
 10
34.41422478388597
 20
-4.691139897214196
 30
0.0
 10
34.70394378449895
 20
-4.825003233838637
 30
0.0
 10
34.97974094027574
 20
-4.918839411037726
 30
0.0
 10
35.22273569558777
 20
-4.986360873952648
 30
0.0
 10
35.3761521875637
 20
-4.9956870386027
 30
0.0
 10
35.44710090361445
 20
-4.999999999999984
 30
0.0
  0
SPLINE
  5
107
330
1F
100
AcDbEntity
  8
0
  6
Continuous
 62
     7
370
    15
100
AcDbSpline
210
0.0
220
0.0
230
1.0
 70
     8
 71
     3
 72
    15
 73
    11
 74
     0
 42
0.000000001
 43
0.00000001
 40
0.0
 40
0.0
 40
0.0
 40
0.0
 40
0.0694929898184401
 40
0.1431342760070823
 40
0.2305399721368742
 40
0.3392226901274358
 40
0.4689273402586334
 40
0.6225248630199934
 40
0.7973362552795746
 40
1.0
 40
1.0
 40
1.0
 40
1.0
 10
35.7012424698795
 20
-4.999999999999984
 30
0.0
 10
35.72391837940992
 20
-4.993286033084944
 30
0.0
 10
35.77062380828722
 20
-4.979457317468721
 30
0.0
 10
35.82480168074549
 20
-4.921158992741002
 30
0.0
 10
35.87437091209273
 20
-4.845884199263365
 30
0.0
 10
35.91238155477588
 20
-4.742560665552464
 30
0.0
 10
35.93794668394462
 20
-4.613929845297189
 30
0.0
 10
35.96187731848759
 20
-4.462372848804915
 30
0.0
 10
35.97068410464015
 20
-4.284723594702437
 30
0.0
 10
35.97359029126292
 20
-4.158504236831781
 30
0.0
 10
35.97515060240963
 20
-4.090737951807213
 30
0.0
  0
SPLINE
  5
108
330
1F
100
AcDbEntity
  8
0
  6
Continuous
 62
     7
370
    15
100
AcDbSpline
210
0.0
220
0.0
230
1.0
 70
     8
 71
     3
 72
    15
 73
    11
 74
     0
 42
0.000000001
 43
0.00000001
 40
0.0
 40
0.0
 40
0.0
 40
0.0
 40
0.2004315260982112
 40
0.3725764703628579
 40
0.5219324359615866
 40
0.6479788033507968
 40
0.7505413998077556
 40
0.8389296270641141
 40
0.9187415695442115
 40
1.0
 40
1.0
 40
1.0
 40
1.0
 10
35.97515060240963
 20
-4.090737951807213
 30
0.0
 10
35.97449623858945
 20
-4.00597628609714
 30
0.0
 10
35.97327986027214
 20
-3.84841523346682
 30
0.0
 10
35.95374074668148
 20
-3.628386447966741
 30
0.0
 10
35.9216858634661
 20
-3.441584082530202
 30
0.0
 10
35.875177429757
 20
-3.288205602708247
 30
0.0
 10
35.81591263516456
 20
-3.167015861338117
 30
0.0
 10
35.74211229610125
 20
-3.077933556316708
 30
0.0
 10
35.64916242897087
 20
-3.021142555330446
 30
0.0
 10
35.58054869419167
 20
-3.015097742049683
 30
0.0
 10
35.54593373493975
 20
-3.012048192771068
 30
0.0
  0
SPLINE
  5
109
330
1F
100
AcDbEntity
  8
0
  6
Continuous
 62
     7
370
    15
100
AcDbSpline
210
0.0
220
0.0
230
1.0
 70
     8
 71
     3
 72
    15
 73
    11
 74
     0
 42
0.000000001
 43
0.00000001
 40
0.0
 40
0.0
 40
0.0
 40
0.0
 40
0.1095317332711141
 40
0.2194328140120743
 40
0.3315645869096353
 40
0.4492698401380828
 40
0.5734755674147579
 40
0.705820372461523
 40
0.8468931550123201
 40
1.0
 40
1.0
 40
1.0
 40
1.0
 10
35.54593373493975
 20
-3.012048192771068
 30
0.0
 10
35.44858562261497
 20
-3.008757953234824
 30
0.0
 10
35.25356113438456
 20
-3.002166379280406
 30
0.0
 10
34.9661151960558
 20
-2.932193814528108
 30
0.0
 10
34.68301514598139
 20
-2.827207074560766
 30
0.0
 10
34.40523792613096
 20
-2.678481131671144
 30
0.0
 10
34.13286448213275
 20
-2.487314003699705
 30
0.0
 10
33.86808067177724
 20
-2.253469058709268
 30
0.0
 10
33.60521094936783
 20
-1.980449010571726
 30
0.0
 10
33.44414409078639
 20
-1.774900268623161
 30
0.0
 10
33.36031626506023
 20
-1.667921686746971
 30
0.0
  0
SPLINE
  5
10A
330
1F
100
AcDbEntity
  8
0
  6
Continuous
 62
     7
370
    15
100
AcDbSpline
210
0.0
220
0.0
230
1.0
 70
     8
 71
     3
 72
    11
 73
     7
 74
     0
 42
0.000000001
 43
0.00000001
 40
0.0
 40
0.0
 40
0.0
 40
0.0
 40
0.1166247097220742
 40
0.3209985566922503
 40
0.6161742657139764
 40
1.0
 40
1.0
 40
1.0
 40
1.0
 10
33.36031626506024
 20
-1.667921686746971
 30
0.0
 10
33.3402792671619
 20
-1.638403716900477
 30
0.0
 10
33.28512931291001
 20
-1.557158278092607
 30
0.0
 10
33.23212760642291
 20
-1.374917946465623
 30
0.0
 10
33.14510066329782
 20
-1.121165354181488
 30
0.0
 10
33.09497601344977
 20
-0.9202420323434768
 30
0.0
 10
33.06664156626505
 20
-0.8066641566264899
 30
0.0
  0
SPLINE
  5
10B
330
1F
100
AcDbEntity
  8
0
  6
Continuous
 62
     7
370
    15
100
AcDbSpline
210
0.0
220
0.0
230
1.0
 70
     8
 71
     3
 72
    11
 73
     7
 74
     0
 42
0.000000001
 43
0.00000001
 40
0.0
 40
0.0
 40
0.0
 40
0.0
 40
0.3214289769490186
 40
0.593323507771206
 40
0.8159797482713795
 40
1.0
 40
1.0
 40
1.0
 40
1.0
 10
33.06664156626506
 20
-0.8066641566264899
 30
0.0
 10
33.03509573045537
 20
-0.6994207960841874
 30
0.0
 10
32.97686549204992
 20
-0.5014610244851759
 30
0.0
 10
32.86389173286891
 20
-0.241589726323212
 30
0.0
 10
32.74705680330734
 20
-0.0340038545475763
 30
0.0
 10
32.64436113758141
 20
0.0639304269114405
 30
0.0
 10
32.59789156626505
 20
0.1082454819277268
 30
0.0
  0
SPLINE
  5
10F
330
1F
100
AcDbEntity
  8
0
  6
Continuous
 62
     7
370
    15
100
AcDbSpline
210
0.0
220
0.0
230
1.0
 70
     8
 71
     3
 72
    11
 73
     7
 74
     0
 42
0.000000001
 43
0.00000001
 40
0.0
 40
0.0
 40
0.0
 40
0.0
 40
0.2981282218351406
 40
0.5561187493663672
 40
0.7837873158773857
 40
1.0
 40
1.0
 40
1.0
 40
1.0
 10
32.48211596385541
 20
-4.999999999999984
 30
0.0
 10
32.55773742315604
 20
-4.905350242386468
 30
0.0
 10
32.69879924921419
 20
-4.728793643659083
 30
0.0
 10
32.94829119838207
 20
-4.529199607972739
 30
0.0
 10
33.20777132745759
 20
-4.400511056098414
 30
0.0
 10
33.38820391530636
 20
-4.383989059758806
 30
0.0
 10
33.47609186746987
 20
-4.375941265060225
 30
0.0
  0
SPLINE
  5
11C
330
1F
100
AcDbEntity
  8
0
  6
Continuous
 62
     7
370
    15
100
AcDbSpline
210
0.0
220
0.0
230
1.0
 70
     8
 71
     3
 72
    15
 73
    11
 74
     0
 42
0.000000001
 43
0.00000001
 40
0.0
 40
0.0
 40
0.0
 40
0.0
 40
0.1317599933764271
 40
0.2595585061540004
 40
0.384685016030502
 40
0.508216383213281
 40
0.6302374958033543
 40
0.7525696828458754
 40
0.8754935533361087
 40
1.0
 40
1.0
 40
1.0
 40
1.0
 10
37.86426957831324
 20
-4.94917168674697
 30
0.0
 10
38.04708525452381
 20
-4.945861167379325
 30
0.0
 10
38.40722009213863
 20
-4.939339662333363
 30
0.0
 10
38.93733894156872
 20
-4.873109262291331
 30
0.0
 10
39.45095549467469
 20
-4.777003429322198
 30
0.0
 10
39.94556688034622
 20
-4.634407888878401
 30
0.0
 10
40.42357165527832
 20
-4.454007266213718
 30
0.0
 10
40.88051487442248
 20
-4.227952383227311
 30
0.0
 10
41.32528119515957
 20
-3.970915577288063
 30
0.0
 10
41.60018534252683
 20
-3.765091402418392
 30
0.0
 10
41.73851656626506
 20
-3.661521084337333
 30
0.0
  0
SPLINE
  5
11D
330
1F
100
AcDbEntity
  8
0
  6
Continuous
 62
     7
370
    15
100
AcDbSpline
210
0.0
220
0.0
230
1.0
 70
     8
 71
     3
 72
    15
 73
    11
 74
     0
 42
0.000000001
 43
0.00000001
 40
0.0
 40
0.0
 40
0.0
 40
0.0
 40
0.1317047780072622
 40
0.2586475578845128
 40
0.3823138423155527
 40
0.5031152632859272
 40
0.6238474614829661
 40
0.7461998369544272
 40
0.8710174691216912
 40
1.0
 40
1.0
 40
1.0
 40
1.0
 10
41.73851656626506
 20
-3.661521084337333
 30
0.0
 10
41.87588792362988
 20
-3.54204475666171
 30
0.0
 10
42.14566375593669
 20
-3.307411960146112
 30
0.0
 10
42.4970463300937
 20
-2.911202208680046
 30
0.0
 10
42.79457942902948
 20
-2.492291420998506
 30
0.0
 10
43.04098321799643
 20
-2.050836449819375
 30
0.0
 10
43.23099935789661
 20
-1.58421322936814
 30
0.0
 10
43.36700875257825
 20
-1.093524383048956
 30
0.0
 10
43.44678057326619
 20
-0.5786580195734532
 30
0.0
 10
43.45810187744713
 20
-0.2280618173928131
 30
0.0
 10
43.46385542168674
 20
-0.0498870481927538
 30
0.0
  0
LINE
  5
11E
330
1F
100
AcDbEntity
  8
0
  6
Continuous
 62
     7
370
    15
100
AcDbLine
 10
-27.3992846386
 20
6.8655873494
 30
0.0
 11
-27.3795180723
 21
3.782003012
 31
0.0
  0
LINE
  5
11F
330
1F
100
AcDbEntity
  8
0
  6
Continuous
 62
     7
370
    15
100
AcDbLine
 10
-25.5722891566
 20
2.5141189759
 30
0.0
 11
-25.5722891566
 21
9.9887048193
 31
0.0
  0
LINE
  5
120
330
1F
100
AcDbEntity
  8
0
  6
Continuous
 62
     7
370
    15
100
AcDbLine
 10
-25.5722891566
 20
9.9887048193
 30
0.0
 11
-29.2714608434
 21
10.0084713855
 31
0.0
  0
LINE
  5
121
330
1F
100
AcDbEntity
  8
0
  6
Continuous
 62
     7
370
    15
100
AcDbLine
 10
-29.2714608434
 20
10.0084713855
 30
0.0
 11
-29.2516942771
 21
8.8958960843
 31
0.0
  0
LINE
  5
122
330
1F
100
AcDbEntity
  8
0
  6
Continuous
 62
     7
370
    15
100
AcDbLine
 10
-41.3149472892
 20
3.782003012
 30
0.0
 11
-41.2951807229
 21
6.8655873494
 31
0.0
  0
LINE
  5
123
330
1F
100
AcDbEntity
  8
0
  6
Continuous
 62
     7
370
    15
100
AcDbLine
 10
-39.4399472892
 20
8.8958960843
 30
0.0
 11
-39.4201807229
 21
10.0084713855
 31
0.0
  0
LINE
  5
124
330
1F
100
AcDbEntity
  8
0
  6
Continuous
 62
     7
370
    15
100
AcDbLine
 10
-39.4201807229
 20
10.0084713855
 30
0.0
 11
-43.1221762048
 21
9.9887048193
 31
0.0
  0
LINE
  5
125
330
1F
100
AcDbEntity
  8
0
  6
Continuous
 62
     7
370
    15
100
AcDbLine
 10
-43.1221762048
 20
9.9887048193
 30
0.0
 11
-43.1024096386
 21
2.5141189759
 31
0.0
  0
LINE
  5
126
330
1F
100
AcDbEntity
  8
0
  6
Continuous
 62
     7
370
    15
100
AcDbLine
 10
-31.9427710843
 20
-2.6195406627
 30
0.0
 11
-31.9427710843
 21
10.0
 31
0.0
  0
LINE
  5
127
330
1F
100
AcDbEntity
  8
0
  6
Continuous
 62
     7
370
    15
100
AcDbLine
 10
-31.9427710843
 20
10.0
 30
0.0
 11
-36.9013554217
 21
10.0
 31
0.0
  0
LINE
  5
128
330
1F
100
AcDbEntity
  8
0
  6
Continuous
 62
     7
370
    15
100
AcDbLine
 10
-36.9013554217
 20
10.0
 30
0.0
 11
-36.9013554217
 21
-2.563064759
 31
0.0
  0
LINE
  5
129
330
1F
100
AcDbEntity
  8
0
  6
Continuous
 62
     7
370
    15
100
AcDbLine
 10
-38.6379894578
 20
-3.9862575301
 30
0.0
 11
-38.6775225904
 21
-5.0
 31
0.0
  0
LINE
  5
12A
330
1F
100
AcDbEntity
  8
0
  6
Continuous
 62
     7
370
    15
100
AcDbLine
 10
-38.6775225904
 20
-5.0
 30
0.0
 11
-30.0508283133
 21
-5.0
 31
0.0
  0
LINE
  5
12B
330
1F
100
AcDbEntity
  8
0
  6
Continuous
 62
     7
370
    15
100
AcDbLine
 10
-30.0508283133
 20
-5.0
 30
0.0
 11
-30.0705948795
 21
-3.9269578313
 31
0.0
  0
LINE
  5
12C
330
1F
100
AcDbEntity
  8
0
  6
Continuous
 62
     7
370
    15
100
AcDbLine
 10
-7.8783885542
 20
-2.4021084337
 30
0.0
 11
-12.6393072289
 21
10.0
 31
0.0
  0
LINE
  5
12D
330
1F
100
AcDbEntity
  8
0
  6
Continuous
 62
     7
370
    15
100
AcDbLine
 10
-12.6393072289
 20
10.0
 30
0.0
 11
-16.3300075301
 21
9.9802334337
 31
0.0
  0
LINE
  5
12E
330
1F
100
AcDbEntity
  8
0
  6
Continuous
 62
     7
370
    15
100
AcDbLine
 10
-16.3300075301
 20
9.9802334337
 30
0.0
 11
-17.34375
 21
7.2722138554
 31
0.0
  0
LINE
  5
12F
330
1F
100
AcDbEntity
  8
0
  6
Continuous
 62
     7
370
    15
100
AcDbLine
 10
-17.34375
 20
7.2722138554
 30
0.0
 11
-14.2403990964
 21
0.5657003012
 31
0.0
  0
LINE
  5
130
330
1F
100
AcDbEntity
  8
0
  6
Continuous
 62
     7
370
    15
100
AcDbLine
 10
-14.2403990964
 20
0.5657003012
 30
0.0
 11
-16.5643825301
 21
0.6024096386
 31
0.0
  0
LINE
  5
131
330
1F
100
AcDbEntity
  8
0
  6
Continuous
 62
     7
370
    15
100
AcDbLine
 10
-13.4412650602
 20
-1.5408509036
 30
0.0
 11
-13.2068900602
 21
-2.5376506024
 31
0.0
  0
LINE
  5
132
330
1F
100
AcDbEntity
  8
0
  6
Continuous
 62
     7
370
    15
100
AcDbLine
 10
-14.8842243976
 20
-3.7857680723
 30
0.0
 11
-15.0423569277
 21
-4.9576430723
 31
0.0
  0
LINE
  5
133
330
1F
100
AcDbEntity
  8
0
  6
Continuous
 62
     7
370
    15
100
AcDbLine
 10
-15.0423569277
 20
-4.9576430723
 30
0.0
 11
-6.0231551205
 21
-4.9774096386
 31
0.0
  0
LINE
  5
134
330
1F
100
AcDbEntity
  8
0
  6
Continuous
 62
     7
370
    15
100
AcDbLine
 10
-6.0231551205
 20
-4.9774096386
 30
0.0
 11
-6.297063253
 21
-3.7490587349
 31
0.0
  0
LINE
  5
135
330
1F
100
AcDbEntity
  8
0
  6
Continuous
 62
     7
370
    15
100
AcDbLine
 10
-18.4167921687
 20
5.7163027108
 30
0.0
 11
-21.7149849398
 21
-2.1507906627
 31
0.0
  0
LINE
  5
136
330
1F
100
AcDbEntity
  8
0
  6
Continuous
 62
     7
370
    15
100
AcDbLine
 10
-23.6690512048
 20
-4.0229668675
 30
0.0
 11
-23.6690512048
 21
-4.9604668675
 31
0.0
  0
LINE
  5
137
330
1F
100
AcDbEntity
  8
0
  6
Continuous
 62
     7
370
    15
100
AcDbLine
 10
-23.6690512048
 20
-4.9604668675
 30
0.0
 11
-17.7927334337
 21
-5.0
 31
0.0
  0
LINE
  5
138
330
1F
100
AcDbEntity
  8
0
  6
Continuous
 62
     7
370
    15
100
AcDbLine
 10
-17.7927334337
 20
-5.0
 30
0.0
 11
-17.8717996988
 21
-3.7688253012
 31
0.0
  0
LINE
  5
139
330
1F
100
AcDbEntity
  8
0
  6
Continuous
 62
     7
370
    15
100
AcDbLine
 10
-19.5096009036
 20
-1.7611069277
 30
0.0
 11
-17.4821159639
 21
3.4713855422
 31
0.0
  0
LINE
  5
13A
330
1F
100
AcDbEntity
  8
0
  6
Continuous
 62
     7
370
    15
100
AcDbLine
 10
5.3539156627
 20
-3.7716490964
 30
0.0
 11
5.3539156627
 21
-5.0
 31
0.0
  0
LINE
  5
13B
330
1F
100
AcDbEntity
  8
0
  6
Continuous
 62
     7
370
    15
100
AcDbLine
 10
5.3539156627
 20
-5.0
 30
0.0
 11
11.484375
 21
-5.0
 31
0.0
  0
LINE
  5
13C
330
1F
100
AcDbEntity
  8
0
  6
Continuous
 62
     7
370
    15
100
AcDbLine
 10
11.484375
 20
-5.0
 30
0.0
 11
11.484375
 21
1.3224774096
 31
0.0
  0
LINE
  5
13D
330
1F
100
AcDbEntity
  8
0
  6
Continuous
 62
     7
370
    15
100
AcDbLine
 10
4.4757153614
 20
8.7518825301
 30
0.0
 11
4.4954819277
 21
10.0
 31
0.0
  0
LINE
  5
13E
330
1F
100
AcDbEntity
  8
0
  6
Continuous
 62
     7
370
    15
100
AcDbLine
 10
4.4954819277
 20
10.0
 30
0.0
 11
-4.1707454819
 21
10.0
 31
0.0
  0
LINE
  5
13F
330
1F
100
AcDbEntity
  8
0
  6
Continuous
 62
     7
370
    15
100
AcDbLine
 10
-4.1707454819
 20
10.0
 30
0.0
 11
-4.1509789157
 21
8.7914156627
 31
0.0
  0
LINE
  5
140
330
1F
100
AcDbEntity
  8
0
  6
Continuous
 62
     7
370
    15
100
AcDbLine
 10
-2.3155120482
 20
7.328689759
 30
0.0
 11
-2.3155120482
 21
-2.563064759
 31
0.0
  0
LINE
  5
141
330
1F
100
AcDbEntity
  8
0
  6
Continuous
 62
     7
370
    15
100
AcDbLine
 10
-4.0521460843
 20
-3.9862575301
 30
0.0
 11
-4.0916792169
 21
-5.0
 31
0.0
  0
LINE
  5
142
330
1F
100
AcDbEntity
  8
0
  6
Continuous
 62
     7
370
    15
100
AcDbLine
 10
-4.0916792169
 20
-5.0
 30
0.0
 11
2.6430722892
 21
-5.0
 31
0.0
  0
LINE
  5
143
330
1F
100
AcDbEntity
  8
0
  6
Continuous
 62
     7
370
    15
100
AcDbLine
 10
2.6430722892
 20
-5.0
 30
0.0
 11
2.6430722892
 21
7.2298569277
 31
0.0
  0
LINE
  5
144
330
1F
100
AcDbEntity
  8
0
  6
Continuous
 62
     7
370
    15
100
AcDbLine
 10
18.2727786145
 20
1.3365963855
 30
0.0
 11
18.2727786145
 21
3.5645707831
 31
0.0
  0
LINE
  5
145
330
1F
100
AcDbEntity
  8
0
  6
Continuous
 62
     7
370
    15
100
AcDbLine
 10
38.4939759036
 20
10.0
 30
0.0
 11
38.2200677711
 21
10.0
 31
0.0
  0
LINE
  5
146
330
1F
100
AcDbEntity
  8
0
  6
Continuous
 62
     7
370
    15
100
AcDbLine
 10
41.343185241
 20
4.9086972892
 30
0.0
 11
42.7099021084
 21
4.9482304217
 31
0.0
  0
LINE
  5
147
330
1F
100
AcDbEntity
  8
0
  6
Continuous
 62
     7
370
    15
100
AcDbLine
 10
42.7099021084
 20
4.9482304217
 30
0.0
 11
42.6901355422
 21
10.0
 31
0.0
  0
LINE
  5
148
330
1F
100
AcDbEntity
  8
0
  6
Continuous
 62
     7
370
    15
100
AcDbLine
 10
42.6901355422
 20
10.0
 30
0.0
 11
41.4589608434
 21
10.0
 31
0.0
  0
LINE
  5
149
330
1F
100
AcDbEntity
  8
0
  6
Continuous
 62
     7
370
    15
100
AcDbLine
 10
35.4471009036
 20
-5.0
 30
0.0
 11
35.7012424699
 21
-5.0
 31
0.0
  0
LINE
  5
14A
330
1F
100
AcDbEntity
  8
0
  6
Continuous
 62
     7
370
    15
100
AcDbLine
 10
32.5978915663
 20
0.1082454819
 30
0.0
 11
31.2142319277
 21
0.1082454819
 31
0.0
  0
LINE
  5
14B
330
1F
100
AcDbEntity
  8
0
  6
Continuous
 62
     7
370
    15
100
AcDbLine
 10
31.2142319277
 20
0.1082454819
 30
0.0
 11
31.2509412651
 21
-5.0
 31
0.0
  0
LINE
  5
14C
330
1F
100
AcDbEntity
  8
0
  6
Continuous
 62
     7
370
    15
100
AcDbLine
 10
31.2509412651
 20
-5.0
 30
0.0
 11
32.4821159639
 21
-5.0
 31
0.0
  0
LINE
  5
14D
330
1F
100
AcDbEntity
  8
0
  6
Continuous
 62
     7
370
    15
100
AcDbLine
 10
68.0
 20
0.0
 30
0.0
 11
68.0
 21
40.0
 31
0.0
  0
LINE
  5
14E
330
1F
100
AcDbEntity
  8
0
  6
Continuous
 62
     7
370
    15
100
AcDbLine
 10
53.0
 20
-15.0
 30
0.0
 11
68.0
 21
0.0
 31
0.0
  0
LINE
  5
14F
330
1F
100
AcDbEntity
  8
0
  6
Continuous
 62
     7
370
    15
100
AcDbLine
 10
-53.0
 20
-15.0
 30
0.0
 11
53.0
 21
-15.0
 31
0.0
  0
LINE
  5
150
330
1F
100
AcDbEntity
  8
0
  6
Continuous
 62
     7
370
    15
100
AcDbLine
 10
-68.0
 20
0.0
 30
0.0
 11
-53.0
 21
-15.0
 31
0.0
  0
LINE
  5
151
330
1F
100
AcDbEntity
  8
0
  6
Continuous
 62
     7
370
    15
100
AcDbLine
 10
-68.0
 20
40.0
 30
0.0
 11
-68.0
 21
0.0
 31
0.0
  0
LINE
  5
152
330
1F
100
AcDbEntity
  8
0
  6
Continuous
 62
     7
370
    15
100
AcDbLine
 10
-45.0
 20
40.0
 30
0.0
 11
-68.0
 21
40.0
 31
0.0
  0
LINE
  5
153
330
1F
100
AcDbEntity
  8
0
  6
Continuous
 62
     7
370
    15
100
AcDbLine
 10
-45.0
 20
40.0
 30
0.0
 11
-25.5857864376
 21
20.5857864376
 31
0.0
  0
LINE
  5
154
330
1F
100
AcDbEntity
  8
0
  6
Continuous
 62
     7
370
    15
100
AcDbLine
 10
24.1715728753
 20
20.0
 30
0.0
 11
-24.1715728753
 21
20.0
 31
0.0
  0
LINE
  5
155
330
1F
100
AcDbEntity
  8
0
  6
Continuous
 62
     7
370
    15
100
AcDbLine
 10
45.0
 20
40.0
 30
0.0
 11
25.5857864376
 21
20.5857864376
 31
0.0
  0
LINE
  5
156
330
1F
100
AcDbEntity
  8
0
  6
Continuous
 62
     7
370
    15
100
AcDbLine
 10
68.0
 20
40.0
 30
0.0
 11
45.0
 21
40.0
 31
0.0
  0
ARC
  5
157
330
1F
100
AcDbEntity
  8
0
  6
Continuous
 62
     7
370
    15
100
AcDbCircle
 10
-24.1715728753
 20
22.0
 30
0.0
 40
2.000000000000025
100
AcDbArc
 50
225.0
 51
270.0
  0
ARC
  5
158
330
1F
100
AcDbEntity
  8
0
  6
Continuous
 62
     7
370
    15
100
AcDbCircle
 10
24.1715728753
 20
22.0
 30
0.0
 40
2.000000000000026
100
AcDbArc
 50
270.0
 51
315.0
  0
ENDSEC
  0
SECTION
  2
OBJECTS
  0
DICTIONARY
  5
C
330
0
100
AcDbDictionary
281
     1
  3
ACAD_GROUP
350
D
  3
ACAD_LAYOUT
350
1A
  3
ACAD_MLINESTYLE
350
17
  3
ACAD_PLOTSETTINGS
350
19
  3
ACAD_PLOTSTYLENAME
350
E
  3
ACAD_SCALELIST
350
47
  0
DICTIONARY
  5
D
102
{ACAD_REACTORS
330
C
102
}
330
C
100
AcDbDictionary
281
     1
  0
DICTIONARY
  5
1A
102
{ACAD_REACTORS
330
C
102
}
330
C
100
AcDbDictionary
281
     1
  3
Layout1
350
1E
  3
Layout2
350
26
  3
Model
350
22
  0
DICTIONARY
  5
17
102
{ACAD_REACTORS
330
C
102
}
330
C
100
AcDbDictionary
281
     1
  3
Standard
350
18
  0
DICTIONARY
  5
19
102
{ACAD_REACTORS
330
C
102
}
330
C
100
AcDbDictionary
281
     1
  0
ACDBDICTIONARYWDFLT
  5
E
102
{ACAD_REACTORS
330
C
102
}
330
C
100
AcDbDictionary
281
     1
  3
Normal
350
F
100
AcDbDictionaryWithDefault
340
F
  0
DICTIONARY
  5
47
102
{ACAD_REACTORS
330
C
102
}
330
C
100
AcDbDictionary
281
     1
  3
A0
350
48
  3
A1
350
49
  3
A2
350
4A
  3
A3
350
4B
  3
A4
350
4C
  3
A5
350
4D
  3
A6
350
4E
  3
A7
350
4F
  3
A8
350
50
  3
A9
350
51
  3
B0
350
52
  3
B1
350
53
  3
B2
350
54
  3
B3
350
55
  3
B4
350
56
  3
B5
350
57
  3
B6
350
58
  3
B7
350
59
  3
B8
350
5A
  3
B9
350
5B
  3
C0
350
5C
  3
C1
350
5D
  3
C2
350
5E
  3
C3
350
5F
  3
C4
350
60
  3
C5
350
61
  3
C6
350
62
  3
C7
350
63
  3
C8
350
64
  3
C9
350
65
  3
D0
350
66
  3
D1
350
67
  3
D2
350
68
  0
LAYOUT
  5
1E
102
{ACAD_REACTORS
330
1A
102
}
330
1A
100
AcDbPlotSettings
  1

  2
none_device
  4

  6

 40
0.0
 41
0.0
 42
0.0
 43
0.0
 44
0.0
 45
0.0
 46
0.0
 47
0.0
 48
0.0
 49
0.0
140
0.0
141
0.0
142
1.0
143
1.0
 70
   688
 72
     1
 73
     0
 74
     5
  7

 75
    16
147
1.0
148
0.0
149
0.0
100
AcDbLayout
  1
Layout1
 70
     1
 71
     1
 10
0.0
 20
0.0
 11
420.0
 21
297.0
 12
0.0
 22
0.0
 32
0.0
 14
1.0000000000E+20
 24
1.0000000000E+20
 34
1.0000000000E+20
 15
-1.0000000000E+20
 25
-1.0000000000E+20
 35
-1.0000000000E+20
146
0.0
 13
0.0
 23
0.0
 33
0.0
 16
1.0
 26
0.0
 36
0.0
 17
0.0
 27
1.0
 37
0.0
 76
     0
330
1B
  0
LAYOUT
  5
26
102
{ACAD_REACTORS
330
1A
102
}
330
1A
100
AcDbPlotSettings
  1

  2
none_device
  4

  6

 40
0.0
 41
0.0
 42
0.0
 43
0.0
 44
0.0
 45
0.0
 46
0.0
 47
0.0
 48
0.0
 49
0.0
140
0.0
141
0.0
142
1.0
143
1.0
 70
   688
 72
     1
 73
     0
 74
     5
  7

 75
    16
147
1.0
148
0.0
149
0.0
100
AcDbLayout
  1
Layout2
 70
     1
 71
     2
 10
0.0
 20
0.0
 11
0.0
 21
0.0
 12
0.0
 22
0.0
 32
0.0
 14
0.0
 24
0.0
 34
0.0
 15
0.0
 25
0.0
 35
0.0
146
0.0
 13
0.0
 23
0.0
 33
0.0
 16
1.0
 26
0.0
 36
0.0
 17
0.0
 27
1.0
 37
0.0
 76
     0
330
23
  0
LAYOUT
  5
22
102
{ACAD_REACTORS
330
1A
102
}
330
1A
100
AcDbPlotSettings
  1

  2
none_device
  4
ANSI_A_(11.00_x_8.50_Inches)
  6

 40
6.35
 41
19.05
 42
6.35000508
 43
19.05000254
 44
279.4
 45
215.9
 46
133.34999746
 47
63.4766531418
 48
0.0
 49
0.0
140
0.0
141
0.0
142
0.0800735294
143
1.0
 70
  1696
 72
     0
 73
     0
 74
     0
  7

 75
     0
147
0.0179189148
148
-1300.4909072572
149
0.0
100
AcDbLayout
  1
Model
 70
     1
 71
     0
 10
0.0
 20
0.0
 11
420.0
 21
297.0
 12
0.0
 22
0.0
 32
0.0
 14
-68.0
 24
-15.0
 34
0.0
 15
68.0
 25
40.0
 35
0.0
146
0.0
 13
0.0
 23
0.0
 33
0.0
 16
1.0
 26
0.0
 36
0.0
 17
0.0
 27
1.0
 37
0.0
 76
     0
330
1F
331
29
  0
MLINESTYLE
  5
18
102
{ACAD_REACTORS
330
17
102
}
330
17
100
AcDbMlineStyle
  2
Standard
 70
     0
  3

 62
   256
 51
90.0
 52
90.0
 71
     2
 49
0.5
 62
   256
  6
BYLAYER
 49
-0.5
 62
   256
  6
BYLAYER
  0
ACDBPLACEHOLDER
  5
F
102
{ACAD_REACTORS
330
E
102
}
330
E
  0
SCALE
  5
48
102
{ACAD_REACTORS
330
47
102
}
330
47
100
AcDbScale
 70
     0
300
1:1
140
1.0
141
1.0
290
     1
  0
SCALE
  5
49
102
{ACAD_REACTORS
330
47
102
}
330
47
100
AcDbScale
 70
     0
300
1:2
140
1.0
141
2.0
290
     0
  0
SCALE
  5
4A
102
{ACAD_REACTORS
330
47
102
}
330
47
100
AcDbScale
 70
     0
300
1:4
140
1.0
141
4.0
290
     0
  0
SCALE
  5
4B
102
{ACAD_REACTORS
330
47
102
}
330
47
100
AcDbScale
 70
     0
300
1:5
140
1.0
141
5.0
290
     0
  0
SCALE
  5
4C
102
{ACAD_REACTORS
330
47
102
}
330
47
100
AcDbScale
 70
     0
300
1:8
140
1.0
141
8.0
290
     0
  0
SCALE
  5
4D
102
{ACAD_REACTORS
330
47
102
}
330
47
100
AcDbScale
 70
     0
300
1:10
140
1.0
141
10.0
290
     0
  0
SCALE
  5
4E
102
{ACAD_REACTORS
330
47
102
}
330
47
100
AcDbScale
 70
     0
300
1:16
140
1.0
141
16.0
290
     0
  0
SCALE
  5
4F
102
{ACAD_REACTORS
330
47
102
}
330
47
100
AcDbScale
 70
     0
300
1:20
140
1.0
141
20.0
290
     0
  0
SCALE
  5
50
102
{ACAD_REACTORS
330
47
102
}
330
47
100
AcDbScale
 70
     0
300
1:30
140
1.0
141
30.0
290
     0
  0
SCALE
  5
51
102
{ACAD_REACTORS
330
47
102
}
330
47
100
AcDbScale
 70
     0
300
1:40
140
1.0
141
40.0
290
     0
  0
SCALE
  5
52
102
{ACAD_REACTORS
330
47
102
}
330
47
100
AcDbScale
 70
     0
300
1:50
140
1.0
141
50.0
290
     0
  0
SCALE
  5
53
102
{ACAD_REACTORS
330
47
102
}
330
47
100
AcDbScale
 70
     0
300
1:100
140
1.0
141
100.0
290
     0
  0
SCALE
  5
54
102
{ACAD_REACTORS
330
47
102
}
330
47
100
AcDbScale
 70
     0
300
2:1
140
2.0
141
1.0
290
     0
  0
SCALE
  5
55
102
{ACAD_REACTORS
330
47
102
}
330
47
100
AcDbScale
 70
     0
300
4:1
140
4.0
141
1.0
290
     0
  0
SCALE
  5
56
102
{ACAD_REACTORS
330
47
102
}
330
47
100
AcDbScale
 70
     0
300
8:1
140
8.0
141
1.0
290
     0
  0
SCALE
  5
57
102
{ACAD_REACTORS
330
47
102
}
330
47
100
AcDbScale
 70
     0
300
10:1
140
10.0
141
1.0
290
     0
  0
SCALE
  5
58
102
{ACAD_REACTORS
330
47
102
}
330
47
100
AcDbScale
 70
     0
300
100:1
140
100.0
141
1.0
290
     0
  0
SCALE
  5
59
102
{ACAD_REACTORS
330
47
102
}
330
47
100
AcDbScale
 70
     0
300
1/128" = 1'-0"
140
0.0078125
141
12.0
290
     0
  0
SCALE
  5
5A
102
{ACAD_REACTORS
330
47
102
}
330
47
100
AcDbScale
 70
     0
300
1/64" = 1'-0"
140
0.015625
141
12.0
290
     0
  0
SCALE
  5
5B
102
{ACAD_REACTORS
330
47
102
}
330
47
100
AcDbScale
 70
     0
300
1/32" = 1'-0"
140
0.03125
141
12.0
290
     0
  0
SCALE
  5
5C
102
{ACAD_REACTORS
330
47
102
}
330
47
100
AcDbScale
 70
     0
300
1/16" = 1'-0"
140
0.0625
141
12.0
290
     0
  0
SCALE
  5
5D
102
{ACAD_REACTORS
330
47
102
}
330
47
100
AcDbScale
 70
     0
300
3/32" = 1'-0"
140
0.09375
141
12.0
290
     0
  0
SCALE
  5
5E
102
{ACAD_REACTORS
330
47
102
}
330
47
100
AcDbScale
 70
     0
300
1/8" = 1'-0"
140
0.125
141
12.0
290
     0
  0
SCALE
  5
5F
102
{ACAD_REACTORS
330
47
102
}
330
47
100
AcDbScale
 70
     0
300
3/16" = 1'-0"
140
0.1875
141
12.0
290
     0
  0
SCALE
  5
60
102
{ACAD_REACTORS
330
47
102
}
330
47
100
AcDbScale
 70
     0
300
1/4" = 1'-0"
140
0.25
141
12.0
290
     0
  0
SCALE
  5
61
102
{ACAD_REACTORS
330
47
102
}
330
47
100
AcDbScale
 70
     0
300
3/8" = 1'-0"
140
0.375
141
12.0
290
     0
  0
SCALE
  5
62
102
{ACAD_REACTORS
330
47
102
}
330
47
100
AcDbScale
 70
     0
300
1/2" = 1'-0"
140
0.5
141
12.0
290
     0
  0
SCALE
  5
63
102
{ACAD_REACTORS
330
47
102
}
330
47
100
AcDbScale
 70
     0
300
3/4" = 1'-0"
140
0.75
141
12.0
290
     0
  0
SCALE
  5
64
102
{ACAD_REACTORS
330
47
102
}
330
47
100
AcDbScale
 70
     0
300
1" = 1'-0"
140
1.0
141
12.0
290
     0
  0
SCALE
  5
65
102
{ACAD_REACTORS
330
47
102
}
330
47
100
AcDbScale
 70
     0
300
1-1/2" = 1'-0"
140
1.5
141
12.0
290
     0
  0
SCALE
  5
66
102
{ACAD_REACTORS
330
47
102
}
330
47
100
AcDbScale
 70
     0
300
3" = 1'-0"
140
3.0
141
12.0
290
     0
  0
SCALE
  5
67
102
{ACAD_REACTORS
330
47
102
}
330
47
100
AcDbScale
 70
     0
300
6" = 1'-0"
140
6.0
141
12.0
290
     0
  0
SCALE
  5
68
102
{ACAD_REACTORS
330
47
102
}
330
47
100
AcDbScale
 70
     0
300
1'-0" = 1'-0"
140
12.0
141
12.0
290
     0
  0
ENDSEC
  0
EOF
